<svg width="34" height="33" viewBox="0 0 34 33" fill="none" xmlns="http://www.w3.org/2000/svg">
<path d="M33.0461 29.8283L26.8473 23.6478C28.8473 21.0998 29.9325 17.9534 29.9285 14.7142C29.9285 6.65898 23.3984 0.128906 15.3432 0.128906C7.28789 0.128906 0.757812 6.65899 0.757812 14.7142C0.757812 22.7695 7.28789 29.2996 15.3432 29.2996C18.5823 29.3036 21.7287 28.2184 24.2767 26.2184L30.4572 32.4172C30.7995 32.7623 31.2655 32.9565 31.7517 32.9565C32.2378 32.9565 32.7038 32.7623 33.0461 32.4172C33.3913 32.0749 33.5854 31.6089 33.5854 31.1227C33.5854 30.6366 33.3913 30.1706 33.0461 29.8283ZM4.40415 14.7142C4.40415 8.6728 9.30171 3.77524 15.3432 3.77524C21.3846 3.77524 26.2822 8.6728 26.2822 14.7142C26.2822 20.7557 21.3846 25.6533 15.3432 25.6533C9.30171 25.6533 4.40415 20.7557 4.40415 14.7142Z" fill="black"/>
</svg>
