<svg width="171" height="172" viewBox="0 0 171 172" fill="none" xmlns="http://www.w3.org/2000/svg">
<rect x="0.5" y="0.5" width="170" height="171" rx="85" fill="white" stroke="#D5D5D5"/>
<path d="M60.0561 45.2007C59.6727 45.2594 59.3055 46.6695 58.5652 47.4039C58.0247 47.9342 57.3491 47.9004 56.9892 48.557C56.8526 48.8022 56.8967 49.2194 56.7424 49.6204C56.4399 50.4224 55.3764 50.4943 55.3764 51.3698C55.372 52.3142 56.2636 52.4949 57.0347 53.1647C57.6369 53.7037 57.6957 54.0753 58.4242 54.3368C59.047 54.5483 59.9724 53.8565 60.8067 54.1047C61.4912 54.3089 62.1462 54.4558 62.3019 55.1593C62.4385 55.8071 62.2931 56.8118 61.4618 56.6957C61.1812 56.6649 59.9694 56.2551 58.4771 56.4137C56.6778 56.6179 54.6258 57.2054 54.4261 59.2104C54.3159 60.3311 55.701 61.653 57.0406 61.3842C57.966 61.2021 57.5283 60.1108 58.0321 59.5805C58.693 58.9019 62.4371 61.9512 65.9182 61.9512C67.3841 61.9512 68.474 61.5811 69.5565 60.4471C69.6578 60.3605 69.7812 60.1754 69.9369 60.1636C70.0838 60.1754 70.3423 60.3208 70.426 60.3825C73.23 62.6357 75.3481 67.1553 85.6519 67.2081C87.1002 67.2155 88.7511 67.9073 90.0995 69.1367C91.301 70.2486 92.0046 71.9774 92.6876 73.7312C93.7187 76.3633 95.5665 78.925 98.369 81.7745C98.5218 81.9273 100.828 83.7207 101.013 83.8544C101.042 83.8735 101.211 84.2774 101.152 84.5036C101.085 86.2118 100.835 91.1809 104.54 91.4056C105.446 91.4512 105.208 90.8152 105.208 90.376C105.206 89.5108 105.048 88.6516 105.505 87.7659C106.129 86.5467 104.181 85.9856 104.238 83.352C104.28 81.3882 102.63 81.7231 101.791 80.2264C101.31 79.3598 100.881 78.8985 100.912 77.838C101.1 71.8702 99.641 67.9499 98.914 66.9863C98.347 66.2593 97.877 65.9699 98.3969 65.6336C101.487 63.5919 102.189 61.6927 102.189 61.6927C103.833 57.8282 105.312 54.3001 107.349 52.7461C107.761 52.4258 108.812 51.64 109.459 51.3301C111.361 50.4341 112.361 49.8906 112.913 49.3531C113.787 48.5011 114.478 46.7239 113.64 45.6472C112.599 44.3179 110.797 45.3725 110.001 45.844C104.318 49.2165 103.481 55.1667 101.512 58.5832C99.9421 61.3137 97.3893 63.3172 95.1068 63.4817C93.3941 63.608 91.5507 63.2629 89.7132 62.4565C85.245 60.4985 82.8009 57.9692 82.2251 57.5212C81.0251 56.5959 71.7069 47.448 64.1571 47.0749C64.1571 47.0749 63.22 45.1992 62.985 45.1684C62.4327 45.0979 61.8672 46.2891 61.4632 46.4272C61.0828 46.5535 60.4409 45.1361 60.0561 45.1992" fill="black"/>
<path d="M132.132 124.856L132.188 124.835C132.661 124.698 133 124.236 133 123.714C133 122.934 132.426 122.526 131.345 122.526H130.549V126.533H131.307V124.948L132.496 126.533H133.423L132.132 124.856ZM131.307 124.299V123.209H131.461C131.985 123.209 132.26 123.384 132.26 123.725C132.26 124.106 131.977 124.299 131.437 124.299H131.307Z" fill="black"/>
<path d="M132.132 124.856L132.188 124.835C132.661 124.698 133 124.236 133 123.714C133 122.934 132.426 122.526 131.345 122.526H130.549V126.533H131.307V124.948L132.496 126.533H133.423L132.132 124.856ZM131.307 124.299V123.209H131.461C131.985 123.209 132.26 123.384 132.26 123.725C132.26 124.106 131.977 124.299 131.437 124.299H131.307Z" fill="black"/>
<path d="M131.739 121.042C129.871 121.042 128.324 122.624 128.324 124.519C128.324 126.413 129.871 128 131.797 128C133.722 128 135.241 126.438 135.241 124.519C135.241 122.599 133.702 121.042 131.739 121.042ZM131.797 127.502C130.188 127.502 128.878 126.167 128.878 124.527C128.878 122.888 130.188 121.547 131.747 121.547H131.797C133.393 121.547 134.684 122.891 134.684 124.527C134.684 126.164 133.393 127.502 131.797 127.502Z" fill="black"/>
<path d="M64.8498 124.47C64.1389 124.454 63.5352 123.869 63.5352 123.148V99.6H55.7754V125.557C55.7754 126.829 56.8065 127.868 58.0712 127.868H71.6358C72.9093 127.868 73.9272 126.829 73.9272 125.557V99.6H66.1732L66.1659 123.148C66.1659 123.869 65.5622 124.454 64.8483 124.47" fill="black"/>
<path d="M90.8346 99.6006H79.0884C77.6989 99.6006 76.5664 100.732 76.5664 102.136V127.868H84.335V104.263C84.3409 103.539 84.9255 102.967 85.6482 102.967C86.3708 102.967 86.9554 103.527 86.9716 104.244V127.868H94.7094V104.242C94.7182 103.527 95.2998 102.967 96.024 102.967C96.7481 102.967 97.3342 103.54 97.3401 104.263V127.868H105.109V102.134C105.109 100.73 103.975 99.5992 102.585 99.5992H90.8375L90.8346 99.6006Z" fill="black"/>
<path d="M50.6474 99.6019H35V127.869H42.7569V120.765H50.5975C52.0061 120.765 53.1415 119.629 53.1415 118.219V102.147C53.1415 100.739 52.0487 99.6019 50.6474 99.6019ZM45.389 115.938C45.3949 116.721 44.7604 117.266 44.0759 117.266H42.7569V102.968H44.0759C44.7545 102.968 45.3949 103.528 45.389 104.314V115.938Z" fill="black"/>
<path d="M132.112 124.855L132.168 124.835C132.641 124.698 132.981 124.236 132.981 123.714C132.981 122.934 132.406 122.526 131.325 122.526H130.529V126.533H131.287V124.948L132.477 126.533H133.404L132.112 124.855ZM131.287 124.299V123.209H131.441C131.966 123.209 132.24 123.384 132.24 123.724C132.24 124.106 131.957 124.299 131.418 124.299H131.287ZM123.361 99.6018H110.262C108.873 99.6018 107.74 100.731 107.74 102.136V127.869H115.494V120.774H118.129V127.869H125.888V102.136C125.888 100.731 124.755 99.6018 123.361 99.6018ZM118.129 117.272H115.494V104.276C115.5 103.557 116.092 102.983 116.809 102.983C117.526 102.983 118.112 103.535 118.129 104.255V117.272Z" fill="black"/>
</svg>
