<svg width="172" height="172" viewBox="0 0 172 172" fill="none" xmlns="http://www.w3.org/2000/svg">
<rect x="0.5" y="0.5" width="171" height="171" rx="85.5" fill="white" stroke="#D5D5D5"/>
<circle opacity="0.852" cx="86" cy="86" r="48.125" fill="url(#paint0_radial_4451_1319)"/>
<path d="M54.2073 122.208C54.1416 122.16 54.0744 122.099 54.007 122.025C52.7613 120.892 50.7322 119.105 48.6119 116.403C46.7807 112.431 47.8187 105.759 52.3252 96.3384C58.6836 83.047 68.8571 69.5519 73.0282 64.7649C71.8413 63.4409 68.1653 59.815 62.9565 55.904C57.7477 51.993 53.9529 51.5923 52.6304 51.83C53.8512 50.5059 56.6998 48.0106 59.0906 46.3301C66.4968 42.6635 80.1835 48.8594 86.0502 52.3902V76.6814C71.0952 88.1904 57.2593 105.963 54.4616 112.889C52.3263 118.175 53.1704 121.107 54.007 122.025C54.0762 122.088 54.143 122.149 54.2073 122.208Z" fill="url(#paint1_linear_4451_1319)"/>
<path d="M54.2073 122.207C54.1416 122.159 54.0744 122.098 54.007 122.024C52.7613 120.891 50.7322 119.104 48.6119 116.402C46.7807 112.43 47.8187 105.758 52.3252 96.3374C59.7071 80.9064 73.0282 64.7639 73.0282 64.7639C73.0282 64.7639 75.4067 70.6703 80.8048 80.9064C66.9021 93.2304 57.2593 105.962 54.4616 112.888C52.3263 118.174 53.1704 121.106 54.007 122.024C54.0762 122.087 54.143 122.148 54.2073 122.207Z" fill="url(#paint2_linear_4451_1319)"/>
<path d="M117.894 122.208C117.96 122.16 118.027 122.099 118.095 122.025C119.34 120.892 121.369 119.105 123.49 116.403C125.321 112.431 124.283 105.759 119.776 96.3384C113.418 83.047 103.244 69.5519 99.0734 64.7649C100.26 63.4409 103.936 59.815 109.145 55.904C114.354 51.993 118.149 51.5923 119.471 51.83C118.25 50.5059 115.402 48.0106 113.011 46.3301C105.605 42.6635 91.9181 48.8594 86.0514 52.3902V76.6814C101.006 88.1904 114.842 105.963 117.64 112.889C119.775 118.175 118.931 121.107 118.095 122.025C118.025 122.088 117.959 122.149 117.894 122.208Z" fill="url(#paint3_linear_4451_1319)"/>
<path d="M117.894 122.207C117.96 122.159 118.027 122.098 118.095 122.024C119.34 120.891 121.369 119.104 123.49 116.402C125.321 112.43 124.283 105.758 119.776 96.3374C112.394 80.9064 99.0734 64.7639 99.0734 64.7639C99.0734 64.7639 96.6949 70.6703 91.2967 80.9064C105.2 93.2304 114.842 105.962 117.64 112.888C119.775 118.174 118.931 121.106 118.095 122.024C118.025 122.087 117.959 122.148 117.894 122.207Z" fill="url(#paint4_linear_4451_1319)"/>
<defs>
<radialGradient id="paint0_radial_4451_1319" cx="0" cy="0" r="1" gradientUnits="userSpaceOnUse" gradientTransform="translate(86 80.8438) rotate(90.0548) scale(53.2813)">
<stop stop-color="#FAFAFA"/>
<stop offset="0.499976" stop-color="#EFEFEF"/>
<stop offset="0.828794" stop-color="#C0BEC0"/>
<stop offset="1" stop-color="#879288"/>
</radialGradient>
<linearGradient id="paint1_linear_4451_1319" x1="75.6613" y1="47.2453" x2="76.4761" y2="74.949" gradientUnits="userSpaceOnUse">
<stop stop-color="#008B00"/>
<stop offset="1" stop-color="#6CC329"/>
</linearGradient>
<linearGradient id="paint2_linear_4451_1319" x1="65.8835" y1="74.5417" x2="75.2539" y2="87.375" gradientUnits="userSpaceOnUse">
<stop stop-color="#008C00"/>
<stop offset="1" stop-color="#48BF21"/>
</linearGradient>
<linearGradient id="paint3_linear_4451_1319" x1="96.4402" y1="47.2453" x2="95.6254" y2="74.949" gradientUnits="userSpaceOnUse">
<stop stop-color="#008B00"/>
<stop offset="1" stop-color="#6CC329"/>
</linearGradient>
<linearGradient id="paint4_linear_4451_1319" x1="106.218" y1="74.5417" x2="96.8477" y2="87.375" gradientUnits="userSpaceOnUse">
<stop stop-color="#008C00"/>
<stop offset="1" stop-color="#48BF21"/>
</linearGradient>
</defs>
</svg>
