<svg width="69" height="22" viewBox="0 0 69 22" fill="none" xmlns="http://www.w3.org/2000/svg">
<path d="M4.74534 5.678C4.43334 5.678 4.17534 5.582 3.97134 5.39C3.76734 5.198 3.66534 4.91 3.66534 4.526C3.66534 4.13 3.76734 3.842 3.97134 3.662C4.17534 3.47 4.43334 3.374 4.74534 3.374C5.06934 3.374 5.32734 3.476 5.51934 3.68C5.71134 3.872 5.80734 4.154 5.80734 4.526C5.80734 4.898 5.71134 5.186 5.51934 5.39C5.32734 5.582 5.06934 5.678 4.74534 5.678ZM7.84134 5.678C7.50534 5.678 7.24134 5.576 7.04934 5.372C6.85734 5.168 6.76134 4.886 6.76134 4.526C6.76134 4.154 6.85734 3.872 7.04934 3.68C7.24134 3.476 7.50534 3.374 7.84134 3.374C8.17734 3.374 8.43534 3.482 8.61534 3.698C8.80734 3.902 8.90334 4.178 8.90334 4.526C8.90334 4.874 8.80734 5.156 8.61534 5.372C8.43534 5.576 8.17734 5.678 7.84134 5.678ZM5.75334 17C4.73334 17 3.86334 16.832 3.14334 16.496C2.43534 16.16 1.88934 15.68 1.50534 15.056C1.13334 14.42 0.947344 13.652 0.947344 12.752C0.947344 11.804 1.15734 10.994 1.57734 10.322C1.99734 9.638 2.58534 9.116 3.34134 8.756C4.09734 8.396 4.97934 8.216 5.98734 8.216H6.94134V7.154H8.86734V15.344H10.9913C11.0513 15.344 11.0813 15.368 11.0813 15.416V16.91C11.0813 16.97 11.0513 17 10.9913 17H5.75334ZM6.95934 15.344V9.872H6.04134C5.04534 9.872 4.27734 10.124 3.73734 10.628C3.19734 11.12 2.92734 11.828 2.92734 12.752C2.92734 13.592 3.16734 14.234 3.64734 14.678C4.13934 15.122 4.83534 15.344 5.73534 15.344H6.95934ZM19.1483 6.56C18.8123 6.56 18.5483 6.458 18.3563 6.254C18.1643 6.05 18.0683 5.768 18.0683 5.408C18.0683 5.036 18.1643 4.754 18.3563 4.562C18.5483 4.358 18.8123 4.256 19.1483 4.256C19.4843 4.256 19.7423 4.358 19.9223 4.562C20.1143 4.766 20.2103 5.048 20.2103 5.408C20.2103 5.756 20.1143 6.038 19.9223 6.254C19.7423 6.458 19.4843 6.56 19.1483 6.56ZM10.8143 17C10.7543 17 10.7243 16.97 10.7243 16.91V15.416C10.7243 15.368 10.7543 15.344 10.8143 15.344H12.9923V8.576H14.9003V11.834C15.2723 10.994 15.7043 10.292 16.1963 9.728C16.7003 9.164 17.2583 8.744 17.8703 8.468C18.4823 8.18 19.1423 8.036 19.8503 8.036C21.2423 8.036 22.2923 8.414 23.0003 9.17C23.7203 9.914 24.0803 11.078 24.0803 12.662V17H10.8143ZM22.1723 15.344V12.698C22.1723 11.666 21.9443 10.91 21.4883 10.43C21.0323 9.938 20.3363 9.692 19.4003 9.692C18.8123 9.692 18.2543 9.848 17.7263 10.16C17.1983 10.472 16.6943 10.94 16.2143 11.564C15.7463 12.188 15.3083 12.962 14.9003 13.886V15.344H22.1723ZM31.5258 15.344C31.5858 15.344 31.6158 15.368 31.6158 15.416V16.91C31.6158 16.97 31.5858 17 31.5258 17H27.2238V3.32H29.1858V15.344H31.5258ZM32.6055 20.906C32.3055 20.906 32.0535 20.81 31.8495 20.618C31.6455 20.426 31.5435 20.138 31.5435 19.754C31.5435 19.358 31.6455 19.064 31.8495 18.872C32.0535 18.692 32.3055 18.602 32.6055 18.602C32.9415 18.602 33.2055 18.698 33.3975 18.89C33.5895 19.094 33.6855 19.382 33.6855 19.754C33.6855 20.114 33.5895 20.396 33.3975 20.6C33.2055 20.804 32.9415 20.906 32.6055 20.906ZM35.7015 20.906C35.3775 20.906 35.1195 20.804 34.9275 20.6C34.7355 20.396 34.6395 20.114 34.6395 19.754C34.6395 19.382 34.7355 19.094 34.9275 18.89C35.1195 18.698 35.3775 18.602 35.7015 18.602C36.0495 18.602 36.3135 18.704 36.4935 18.908C36.6855 19.124 36.7815 19.406 36.7815 19.754C36.7815 20.102 36.6855 20.378 36.4935 20.582C36.3015 20.798 36.0375 20.906 35.7015 20.906ZM31.3455 17C31.2855 17 31.2555 16.97 31.2555 16.91V15.416C31.2555 15.368 31.2855 15.344 31.3455 15.344H34.6935V8.216H36.6555V17H31.3455ZM39.9458 21.32C39.5498 21.32 39.1658 21.266 38.7938 21.158C38.4218 21.062 38.0317 20.894 37.6237 20.654L38.2897 19.268C38.5898 19.424 38.8418 19.526 39.0458 19.574C39.2618 19.622 39.4958 19.646 39.7478 19.646C40.2758 19.646 40.6898 19.436 40.9897 19.016C41.2898 18.608 41.4398 18.068 41.4398 17.396V8.216H43.3478V17.378C43.3478 18.194 43.2098 18.896 42.9338 19.484C42.6698 20.072 42.2798 20.522 41.7638 20.834C41.2598 21.158 40.6538 21.32 39.9458 21.32ZM51 18.26H69V0.26H51V18.26Z" fill="black"/>
</svg>
