<svg width="69" height="69" viewBox="0 0 69 69" fill="none" xmlns="http://www.w3.org/2000/svg">
<path d="M0 34.295C0 53.235 15.3539 68.589 34.294 68.589C53.2341 68.589 68.588 53.235 68.588 34.295C68.588 15.3549 53.2341 0.000976562 34.294 0.000976562C15.3539 0.000976562 0 15.3549 0 34.295Z" fill="#F00073"/>
<path d="M34.29 19.7385C39.0054 19.7385 39.6484 19.7385 41.5775 19.7385C43.2922 19.7385 44.1495 20.1672 44.7925 20.3815C45.6499 20.8102 46.2929 21.0245 46.9359 21.6675C47.5789 22.3106 48.0076 22.9536 48.2219 23.8109C48.4363 24.4539 48.6506 25.3113 48.865 27.026C48.865 28.955 48.865 29.3837 48.865 34.3134C48.865 39.2432 48.865 39.6719 48.865 41.6009C48.865 43.3156 48.4363 44.173 48.2219 44.816C47.7933 45.6733 47.5789 46.3163 46.9359 46.9594C46.2929 47.6024 45.6499 48.031 44.7925 48.2454C44.1495 48.4597 43.2922 48.6741 41.5775 48.8884C39.6484 48.8884 39.2198 48.8884 34.29 48.8884C29.3602 48.8884 28.9316 48.8884 27.0025 48.8884C25.2878 48.8884 24.4305 48.4597 23.7875 48.2454C22.9301 47.8167 22.2871 47.6024 21.6441 46.9594C21.0011 46.3163 20.5724 45.6733 20.3581 44.816C20.1437 44.173 19.9294 43.3156 19.7151 41.6009C19.7151 39.6719 19.7151 39.2432 19.7151 34.3134C19.7151 29.3837 19.7151 28.955 19.7151 27.026C19.7151 25.3113 20.1437 24.4539 20.3581 23.8109C20.7868 22.9536 21.0011 22.3106 21.6441 21.6675C22.2871 21.0245 22.9301 20.5959 23.7875 20.3815C24.4305 20.1672 25.2878 19.9528 27.0025 19.7385C28.9316 19.7385 29.5746 19.7385 34.29 19.7385ZM34.29 16.5234C29.3602 16.5234 28.9316 16.5234 27.0025 16.5234C25.0735 16.5234 23.7875 16.9521 22.7158 17.3808C21.6441 17.8095 20.5724 18.4525 19.5007 19.5242C18.429 20.5959 18.0004 21.4532 17.3574 22.7392C16.9287 23.8109 16.7143 25.0969 16.5 27.026C16.5 28.955 16.5 29.598 16.5 34.3134C16.5 39.2432 16.5 39.6719 16.5 41.6009C16.5 43.53 16.9287 44.816 17.3574 45.8877C17.786 46.9594 18.429 48.031 19.5007 49.1027C20.5724 50.1744 21.4298 50.6031 22.7158 51.2461C23.7875 51.6748 25.0735 51.8891 27.0025 52.1035C28.9316 52.1035 29.5746 52.1035 34.29 52.1035C39.0054 52.1035 39.6484 52.1035 41.5775 52.1035C43.5065 52.1035 44.7925 51.6748 45.8642 51.2461C46.9359 50.8174 48.0076 50.1744 49.0793 49.1027C50.151 48.031 50.5797 47.1737 51.2227 45.8877C51.6514 44.816 51.8657 43.53 52.08 41.6009C52.08 39.6719 52.08 39.0289 52.08 34.3134C52.08 29.598 52.08 28.955 52.08 27.026C52.08 25.0969 51.6514 23.8109 51.2227 22.7392C50.794 21.6675 50.151 20.5959 49.0793 19.5242C48.0076 18.4525 47.1503 18.0238 45.8642 17.3808C44.7925 16.9521 43.5065 16.7378 41.5775 16.5234C39.6484 16.5234 39.2198 16.5234 34.29 16.5234Z" fill="white"/>
<path d="M34.29 25.0969C29.1459 25.0969 25.0735 29.1693 25.0735 34.3134C25.0735 39.4576 29.1459 43.53 34.29 43.53C39.4341 43.53 43.5065 39.4576 43.5065 34.3134C43.5065 29.1693 39.4341 25.0969 34.29 25.0969ZM34.29 40.3149C31.075 40.3149 28.2886 37.7428 28.2886 34.3134C28.2886 31.0984 30.8606 28.312 34.29 28.312C37.5051 28.312 40.2915 30.8841 40.2915 34.3134C40.2915 37.5285 37.5051 40.3149 34.29 40.3149Z" fill="white"/>
<path d="M43.7209 27.026C44.9046 27.026 45.8642 26.0664 45.8642 24.8826C45.8642 23.6988 44.9046 22.7392 43.7209 22.7392C42.5371 22.7392 41.5775 23.6988 41.5775 24.8826C41.5775 26.0664 42.5371 27.026 43.7209 27.026Z" fill="white"/>
</svg>
