<svg width="20" height="20" viewBox="0 0 20 20" fill="none" xmlns="http://www.w3.org/2000/svg">
<path d="M2.14062 13.59V13.9909C2.14062 16.2053 3.93576 18.0005 6.15017 18.0005H14.1693C16.3837 18.0005 18.1788 16.2053 18.1788 13.9909V9.17946C18.1788 6.96506 16.3837 5.16992 14.1693 5.16992H6.15017C3.93576 5.16992 2.14062 6.96506 2.14062 9.17947V9.98137" stroke="#EAFF1F" stroke-width="1.11033" stroke-linecap="round"/>
<path d="M15.7731 5.57081V5.44181C15.7731 3.6455 14.1244 2.30166 12.365 2.66389V2.66389L8.95685 3.36556L5.34163 4.10987C3.47796 4.49357 2.14063 6.13428 2.14063 8.03705L2.14062 9.98131" stroke="#EAFF1F" stroke-width="1.11033"/>
<path d="M18.1798 13.5899V14.1451H18.7349V13.5899H18.1798ZM15.3731 10.1356C15.6797 10.1356 15.9283 9.88699 15.9283 9.58038C15.9283 9.27377 15.6797 9.02522 15.3731 9.02522V10.1356ZM17.6246 9.58038V13.5899H18.7349V9.58038H17.6246ZM18.1798 13.0348H14.5712V14.1451H18.1798V13.0348ZM14.5712 10.1356H15.3731V9.02522H14.5712V10.1356ZM14.5712 13.0348C13.7706 13.0348 13.1216 12.3857 13.1216 11.5852H12.0112C12.0112 12.999 13.1574 14.1451 14.5712 14.1451V13.0348ZM13.1216 11.5852C13.1216 10.7846 13.7706 10.1356 14.5712 10.1356V9.02522C13.1574 9.02522 12.0112 10.1713 12.0112 11.5852H13.1216Z" fill="#EAFF1F"/>
<path d="M14.5703 11.5851H14.7307" stroke="#EAFF1F" stroke-width="1.11033" stroke-linecap="round" stroke-linejoin="round"/>
</svg>
