<svg width="171" height="172" viewBox="0 0 171 172" fill="none" xmlns="http://www.w3.org/2000/svg">
<rect x="0.5" y="0.5" width="170" height="171" rx="85" fill="white" stroke="#D5D5D5"/>
<circle cx="86" cy="86" r="48.125" fill="black"/>
<path d="M44.75 72.25H46.934L55.4518 102.328H53.2678L44.75 72.25Z" fill="#FFFDFE"/>
<path d="M50.6469 72.25H52.8309L61.3487 102.328H59.1647L50.6469 72.25Z" fill="#FFFDFE"/>
<path d="M63.0951 72.25H56.543L65.0608 102.328H71.6129L77.4334 82.7773L83.6252 102.328H89.8497L98.0399 72.25H91.597L86.5015 91.4785L80.5675 72.25H74.343L68.446 91.1452L63.0951 72.25Z" fill="#FEDB32"/>
<path d="M98.0399 86.2148L101.753 72.25H104.592V91.3711C104.592 94.2188 106.939 96.5273 109.834 96.5273H112.018C114.913 96.5273 117.26 94.2188 117.26 91.3711V72.25H123.812V91.3711C123.812 97.8971 118.434 103.188 111.799 103.188H110.052C103.418 103.188 98.0399 97.8971 98.0399 91.3711V86.2148Z" fill="#FEDB32"/>
</svg>
