<svg width="492" height="225" viewBox="0 0 492 225" fill="none" xmlns="http://www.w3.org/2000/svg">
<path d="M465.785 0H345.994C345.994 21.8996 328.242 39.6512 306.347 39.6512C284.452 39.6512 266.696 21.8996 266.696 0H25.9092C11.5989 0 0.000113285 11.5988 0.000113285 25.9091V198.422C0.000113285 212.732 11.5989 224.331 25.9092 224.331H266.696C266.696 202.432 284.447 184.68 306.347 184.68C328.247 184.68 345.994 202.432 345.994 224.331H465.785C480.096 224.331 491.694 212.732 491.694 198.422V25.9091C491.694 11.5988 480.096 0 465.785 0Z" fill="#F6F6F6"/>
<path d="M307.566 49.1875C307.566 48.9312 307.358 48.7235 307.102 48.7235C306.845 48.7235 306.638 48.9312 306.638 49.1875L307.566 49.1875ZM306.638 49.1875L306.638 51.4413L307.566 51.4413L307.566 49.1875L306.638 49.1875ZM306.638 55.9489L306.638 60.4564L307.566 60.4564L307.566 55.9489L306.638 55.9489ZM306.638 64.964L306.638 69.4716L307.566 69.4716L307.566 64.964L306.638 64.964ZM306.638 73.9792L306.638 78.4867L307.566 78.4867L307.566 73.9792L306.638 73.9792ZM306.638 82.9943L306.638 87.5019L307.566 87.5019L307.566 82.9943L306.638 82.9943ZM306.638 92.0095L306.638 96.5171L307.566 96.5171L307.566 92.0095L306.638 92.0095ZM306.638 101.025L306.638 105.532L307.566 105.532L307.566 101.025L306.638 101.025ZM306.638 110.04L306.638 114.547L307.566 114.547L307.566 110.04L306.638 110.04ZM306.638 119.055L306.638 123.563L307.566 123.563L307.566 119.055L306.638 119.055ZM306.638 128.07L306.638 132.578L307.566 132.578L307.566 128.07L306.638 128.07ZM306.638 137.085L306.638 141.593L307.566 141.593L307.566 137.085L306.638 137.085ZM306.638 146.1L306.638 150.608L307.566 150.608L307.566 146.1L306.638 146.1ZM306.638 155.116L306.638 159.623L307.566 159.623L307.566 155.116L306.638 155.116ZM306.638 164.131L306.638 168.638L307.566 168.638L307.566 164.131L306.638 164.131ZM306.638 173.146L306.638 175.4L307.566 175.4L307.566 173.146L306.638 173.146Z" fill="#8E8E8E"/>
</svg>
