<svg width="69" height="69" viewBox="0 0 69 69" fill="none" xmlns="http://www.w3.org/2000/svg">
<path d="M0 34.2969C0 53.237 15.3539 68.5909 34.294 68.5909C53.2341 68.5909 68.588 53.237 68.588 34.2969C68.588 15.3569 53.2341 0.00292969 34.294 0.00292969C15.3539 0.00292969 0 15.3569 0 34.2969Z" fill="#1877F2"/>
<path d="M51.4424 34.2998C51.4424 24.869 43.7263 17.1528 34.2954 17.1528C24.8646 17.1528 17.1484 24.869 17.1484 34.2998C17.1484 42.8733 23.3642 49.9465 31.509 51.2325V39.2296H27.2223V34.2998H31.509V30.4418C31.509 26.155 34.0811 23.7973 37.9392 23.7973C39.8682 23.7973 41.7972 24.226 41.7972 24.226V28.5127H39.6539C37.5105 28.5127 36.8675 29.7987 36.8675 31.0848V34.2998H41.5829L40.7256 39.2296H36.6532V51.4468C45.2267 50.1608 51.4424 42.8733 51.4424 34.2998Z" fill="white"/>
</svg>
