<svg width="68" height="68" viewBox="0 0 68 68" fill="none" xmlns="http://www.w3.org/2000/svg">
<path d="M0 33.9466C0 52.6954 15.1989 67.8942 33.9476 67.8942C52.6963 67.8942 67.8952 52.6954 67.8952 33.9466C67.8952 15.1979 52.6963 -0.000976562 33.9476 -0.000976562C15.1989 -0.000976562 0 15.1979 0 33.9466Z" fill="#E60023"/>
<path d="M33.9425 16.9751C24.607 16.9751 16.9688 24.6133 16.9688 33.9489C16.9688 40.9506 21.2122 46.8914 27.153 49.4375C27.153 48.1644 27.153 46.8914 27.3652 45.6184C27.7895 44.1332 29.4869 36.2828 29.4869 36.2828C29.4869 36.2828 28.8504 35.2219 28.8504 33.5246C28.8504 30.9785 30.3356 29.0689 32.033 29.0689C33.5182 29.0689 34.3669 30.1298 34.3669 31.615C34.3669 33.1002 33.306 35.4341 32.8817 37.5558C32.4573 39.2532 33.7304 40.7384 35.6399 40.7384C38.8225 40.7384 40.9442 36.7071 40.9442 31.615C40.9442 27.7959 38.3982 25.0377 33.9425 25.0377C28.8504 25.0377 25.6678 28.8568 25.6678 33.1002C25.6678 34.5854 26.0922 35.6463 26.7287 36.495C26.9409 36.9193 27.153 36.9193 26.9409 37.3437C26.9409 37.5558 26.7287 38.4045 26.5165 38.6167C26.3043 39.041 26.0922 39.2532 25.6678 39.041C23.3339 37.9802 22.2731 35.4341 22.2731 32.4637C22.2731 27.5837 26.3043 21.8551 34.3669 21.8551C40.9442 21.8551 45.1877 26.5229 45.1877 31.615C45.1877 38.1923 41.5808 43.2845 36.0643 43.2845C34.1547 43.2845 32.4573 42.2236 31.8208 41.1628C31.8208 41.1628 30.7599 44.9819 30.5478 45.8306C30.1234 47.1036 29.4869 48.3766 28.8504 49.4375C30.3356 49.8618 32.033 50.074 33.7304 50.074C43.066 50.074 50.7042 42.4358 50.7042 33.1002C50.9163 24.6133 43.2781 16.9751 33.9425 16.9751Z" fill="white"/>
</svg>
