<svg  width="189" height="58" viewBox="0 0 189 58" fill="none" xmlns="http://www.w3.org/2000/svg">
<path class ="text" d="M30.5333 35.8398C25.5277 35.8398 21.4551 39.9125 21.4551 44.9181C21.4551 49.9236 25.5277 53.9963 30.5333 53.9963C35.5388 53.9963 39.6115 49.9236 39.6115 44.9181C39.6115 39.9125 35.5388 35.8398 30.5333 35.8398ZM36.736 44.9181C36.736 48.3382 33.9535 51.1207 30.5333 51.1207C27.1131 51.1207 24.3306 48.3382 24.3306 44.9181C24.3306 41.4979 27.1131 38.7154 30.5333 38.7154C33.9535 38.7154 36.736 41.4979 36.736 44.9181Z" fill="black"/>
<path class ="text" d="M51.6902 36.8187C49.2609 36.719 46.891 37.6128 45.1222 39.2696V34.2452C45.1222 33.4525 44.4778 32.8081 43.6851 32.8081C42.8924 32.8081 42.248 33.4525 42.248 34.2452V45.7608C42.248 48.2602 43.2281 50.6032 45.0063 52.3585C46.7144 54.0436 48.9549 54.9671 51.3263 54.9671C51.3681 54.9671 51.4098 54.9671 51.4516 54.9671C53.9335 54.9334 56.2388 53.9142 57.9428 52.0983C59.6455 50.2851 60.515 47.9164 60.391 45.4305C60.1605 40.7849 56.3386 37.0021 51.6889 36.8187H51.6902ZM57.5289 45.8902C57.5289 49.3104 54.7464 52.0929 51.3263 52.0929C47.9061 52.0929 45.1236 49.3104 45.1236 45.8902C45.1236 42.4701 47.9061 39.6875 51.3263 39.6875C54.7464 39.6875 57.5289 42.4701 57.5289 45.8902Z" fill="black"/>
<path class ="text" d="M72.6505 36.8118C67.6449 36.8118 63.5723 40.8844 63.5723 45.89C63.5723 50.8955 67.6449 54.9682 72.6505 54.9682C77.656 54.9682 81.7287 50.8955 81.7287 45.89C81.7287 40.8844 77.656 36.8118 72.6505 36.8118ZM78.8545 45.89C78.8545 49.3102 76.072 52.0927 72.6518 52.0927C69.2317 52.0927 66.4491 49.3102 66.4491 45.89C66.4491 42.4698 69.2317 39.6873 72.6518 39.6873C76.072 39.6873 78.8545 42.4698 78.8545 45.89Z" fill="black"/>
<path class ="text" d="M94.4421 36.8118H94.403C92.0681 36.8118 89.8761 37.6867 88.1828 39.2869C88.075 38.6007 87.4791 38.075 86.7633 38.075C85.9706 38.075 85.3262 38.7194 85.3262 39.512V52.2693C85.3262 53.062 85.9706 53.7064 86.7633 53.7064C87.556 53.7064 88.2004 53.062 88.2004 52.2693V45.987C88.2004 42.5655 90.9397 39.7399 94.3073 39.6873C95.9776 39.6657 97.5603 40.2953 98.7534 41.4722C99.9478 42.6491 100.606 44.2183 100.606 45.89V52.2679C100.606 53.0606 101.25 53.705 102.043 53.705C102.836 53.705 103.48 53.0606 103.48 52.2679V46.0086C103.48 40.9586 99.4248 36.832 94.4408 36.8118H94.4421Z" fill="black"/>
<path class ="text" d="M21.9527 9.60408C21.9527 8.81139 21.3083 8.16699 20.5156 8.16699C19.7229 8.16699 19.0785 8.81139 19.0785 9.60408V13.9787C19.0785 18.4612 15.4804 22.1416 11.0572 22.1847C8.876 22.1995 6.82956 21.3718 5.27922 19.8376C3.72889 18.3021 2.87553 16.2597 2.87553 14.0839V13.6215C2.87553 12.8288 2.23113 12.1844 1.43844 12.1844C0.645748 12.1844 0 12.8288 0 13.6215V13.945C0 20.0156 4.87479 25.0023 10.8685 25.0602C10.9049 25.0602 10.9413 25.0602 10.9777 25.0602C13.8856 25.0602 16.6236 23.9332 18.697 21.88C20.7974 19.7999 21.9541 17.0322 21.9541 14.0839V9.60408H21.9527Z" fill="black"/>
<path class ="text" d="M34.1123 25.0602H34.9428L33.348 27.9304C32.9624 28.6233 33.2132 29.4996 33.9061 29.8851C34.1231 30.0051 34.3618 30.0671 34.6017 30.0671C34.7338 30.0671 34.8673 30.0483 34.9981 30.0119C35.3674 29.9067 35.6735 29.6641 35.8595 29.3284L38.2308 25.0616H45.7223C50.7279 25.0616 54.8005 20.9889 54.8005 15.9834V9.60543C54.8005 8.81274 54.1561 8.16834 53.3634 8.16834C52.5708 8.16834 51.9264 8.81274 51.9264 9.60543V15.9834C51.9264 19.4035 49.1438 22.1861 45.7237 22.1861H39.8297L41.2992 19.5424C42.7875 16.865 42.743 13.6848 41.1819 11.0358C39.6558 8.4474 36.9704 6.90381 33.9951 6.90381C33.8778 6.90381 33.7591 6.9065 33.6405 6.91055C28.9302 7.08985 25.1002 10.9198 24.9209 15.6302C24.8265 18.104 25.7122 20.451 27.4149 22.2386C29.1216 24.0316 31.5631 25.0602 34.1137 25.0602H34.1123ZM27.7924 15.7394C27.9151 12.5228 30.5304 9.90606 33.747 9.78473C33.8252 9.78204 33.902 9.78069 33.9883 9.78069C35.9377 9.78069 37.6997 10.7958 38.7027 12.4971C39.7407 14.2578 39.7717 16.3703 38.7836 18.1471L36.539 22.1874H33.9897C32.2883 22.1874 30.7003 21.512 29.5207 20.2866C28.3411 19.0611 27.7263 17.4474 27.791 15.7421L27.7924 15.7394Z" fill="black"/>
<path class ="text" d="M66.2356 25.044V25.0602H67.7077L66.1129 27.9303C65.7273 28.6232 65.9781 29.4995 66.671 29.8851C66.8881 30.0051 67.1267 30.0671 67.3666 30.0671C67.4988 30.0671 67.6322 30.0482 67.763 30.0118C68.1324 29.9066 68.4384 29.664 68.6244 29.3283L70.9958 25.0615H94.2737C96.7731 25.0615 99.1161 24.0814 100.871 22.3033C102.586 20.5642 103.512 18.2751 103.48 15.8579C103.446 13.376 102.427 11.0708 100.611 9.36675C98.798 7.66408 96.428 6.79454 93.9434 6.91722C89.2978 7.14775 85.515 10.9697 85.3316 15.6193C85.2359 18.0486 86.1243 20.4186 87.7825 22.1873H72.5933L74.0627 19.5437C75.5511 16.8663 75.5066 13.6861 73.9454 11.0371C72.3628 8.35431 69.5385 6.79319 66.4041 6.91183C61.6938 7.09113 57.8638 10.9211 57.6845 15.6314C57.5901 18.1241 58.4893 20.486 60.2149 22.279C61.8124 23.9385 63.9451 24.9173 66.2356 25.0453V25.044ZM88.2004 15.982C88.2004 12.5618 90.9829 9.77927 94.4031 9.77927C97.8233 9.77927 100.606 12.5618 100.606 15.982C100.606 19.4021 97.8233 22.1846 94.4031 22.1846C90.9829 22.1846 88.2004 19.4021 88.2004 15.982ZM60.5587 15.7393C60.6813 12.5227 63.2967 9.90599 66.5146 9.78466C66.5915 9.78197 66.6697 9.78062 66.7559 9.78062C68.7053 9.78062 70.4673 10.7957 71.4703 12.4971C72.5084 14.2577 72.5394 16.3702 71.5512 18.147L69.3066 22.1873H66.7573C65.056 22.1873 63.4679 21.5119 62.2883 20.2865C61.1087 19.061 60.4939 17.4474 60.5587 15.742V15.7393Z" fill="black"/>
<path class ="text" d="M49.5429 29.7314C50.5429 29.7314 51.3535 28.9208 51.3535 27.9209C51.3535 26.9209 50.5429 26.1104 49.5429 26.1104C48.543 26.1104 47.7324 26.9209 47.7324 27.9209C47.7324 28.9208 48.543 29.7314 49.5429 29.7314Z" fill="black"/>
<path class ="text" d="M10.9883 14.1713C11.9886 14.1713 12.7988 13.3611 12.7988 12.3608C12.7988 11.3605 11.9886 10.5503 10.9883 10.5503C9.98795 10.5503 9.17773 11.3605 9.17773 12.3608C9.17773 13.3611 9.98795 14.1713 10.9883 14.1713Z" fill="black"/>
<path class ="text" d="M92.2519 6.25263C93.2522 6.25263 94.0624 5.44241 94.0624 4.44211C94.0624 3.44181 93.2522 2.63159 92.2519 2.63159C91.2516 2.63159 90.4414 3.44181 90.4414 4.44211C90.4414 5.44241 91.2516 6.25263 92.2519 6.25263Z" fill="black"/>
<path class ="text" d="M96.5566 6.25263C97.5569 6.25263 98.3671 5.44241 98.3671 4.44211C98.3671 3.44181 97.5569 2.63159 96.5566 2.63159C95.5563 2.63159 94.7461 3.44181 94.7461 4.44211C94.7461 5.44241 95.5563 6.25263 96.5566 6.25263Z" fill="black"/>
<path class ="text" d="M16.7197 37.1014C16.0038 37.1014 15.408 37.6272 15.3001 38.3134C13.5772 36.6862 11.3353 35.8099 8.96532 35.8396C4.19838 35.8989 0.267275 39.6696 0.0151774 44.4257C-0.118286 46.9413 0.762034 49.3329 2.49436 51.1609C4.22804 52.989 6.56702 53.996 9.07991 53.996C11.4068 53.996 13.5934 53.1265 15.2826 51.5384V56.5615C15.2826 57.3542 15.927 57.9986 16.7197 57.9986C17.5124 57.9986 18.1568 57.3542 18.1568 56.5615V38.5399C18.1568 37.7472 17.5124 37.1028 16.7197 37.1028V37.1014ZM9.07856 51.1205C5.65839 51.1205 2.87588 48.338 2.87588 44.9178C2.87588 41.4976 5.65839 38.7151 9.07856 38.7151C12.4987 38.7151 15.2812 41.4976 15.2812 44.9178C15.2812 48.338 12.4987 51.1205 9.07856 51.1205Z" fill="black"/>
<path  d="M171.995 0H131.124C122.069 0 114.729 7.34064 114.729 16.3958V41.6042C114.729 50.6594 122.069 58 131.124 58H171.995C181.05 58 188.391 50.6594 188.391 41.6042V16.3958C188.391 7.34064 181.05 0 171.995 0Z" fill="#EAFF1F"/>
<path  d="M163.94 13.7024C158.55 13.7024 153.813 16.5348 151.13 20.7881C150.538 19.8471 149.839 18.956 149.021 18.1377C146.161 15.2783 142.359 13.7037 138.315 13.7037C134.271 13.7037 130.469 15.2783 127.61 18.1377C124.75 20.997 123.176 24.7987 123.176 28.8431C123.176 32.8874 124.75 36.6891 127.61 39.5485C130.469 42.4078 134.271 43.9824 138.315 43.9824C142.359 43.9824 146.161 42.4078 149.021 39.5485C149.839 38.7302 150.54 37.8391 151.13 36.8981C153.814 41.15 158.552 43.9838 163.94 43.9838C172.289 43.9838 179.081 37.192 179.081 28.8431C179.081 20.4942 172.289 13.7024 163.94 13.7024ZM145.728 36.2564C143.748 38.2368 141.115 39.3274 138.314 39.3274C135.512 39.3274 132.88 38.2368 130.899 36.2564C128.919 34.276 127.828 31.6431 127.828 28.8417C127.828 26.0403 128.919 23.4075 130.899 21.4271C132.88 19.4467 135.512 18.3561 138.314 18.3561C141.115 18.3561 143.748 19.4467 145.728 21.4271C149.817 25.5159 149.817 32.1689 145.728 36.2564ZM163.94 39.3287C158.158 39.3287 153.454 34.6252 153.454 28.8431C153.454 23.061 158.158 18.3574 163.94 18.3574C169.722 18.3574 174.426 23.061 174.426 28.8431C174.426 34.6252 169.722 39.3287 163.94 39.3287Z" fill="black" class="eye"/>
<path  d="M179.947 12.8344C176.6 9.48698 172.37 7.30303 167.716 6.51978L166.943 11.1088C170.639 11.7302 173.997 13.4653 176.657 16.1251L179.947 12.8344Z" fill="black" class="eye"/>
<path d="M138.314 46.8269V51.4806C143.049 51.4806 147.584 50.0341 151.429 47.2974L148.73 43.5051C145.678 45.6783 142.076 46.8269 138.314 46.8269Z" fill="black"/>
<path  d="M159.864 30.0467C162.115 30.0467 163.94 28.2221 163.94 25.9713C163.94 23.7206 162.115 21.896 159.864 21.896C157.614 21.896 155.789 23.7206 155.789 25.9713C155.789 28.2221 157.614 30.0467 159.864 30.0467Z" fill="black" id="leftPupil"/>
<path  d="M134.236 30.0467C136.486 30.0467 138.311 28.2221 138.311 25.9713C138.311 23.7206 136.486 21.896 134.236 21.896C131.985 21.896 130.16 23.7206 130.16 25.9713C130.16 28.2221 131.985 30.0467 134.236 30.0467Z" fill="black" id="rightPupil"/>
</svg>
