<svg width="210" height="210" viewBox="0 0 210 210" fill="none" xmlns="http://www.w3.org/2000/svg">
<rect x="18" y="30" width="175" height="150" fill="white"/>
<path d="M162.383 72.3149V72.6285C162.383 75.272 164.578 77.4675 167.221 77.4675C169.863 77.4675 172.058 75.272 172.058 72.6285V72.3149C172.058 71.1052 176.359 71.1052 176.359 72.3149V72.6285C176.359 77.6915 172.238 81.7687 167.176 81.7687C162.114 81.7687 158.038 77.6467 158.038 72.6285V72.3149C158.082 71.15 162.383 71.15 162.383 72.3149ZM81.8409 88.579C85.0661 88.579 87.5299 90.1472 88.4258 93.1043C86.2308 93.6868 84.0358 93.9556 81.7961 93.9556C78.4364 93.9556 77.227 93.642 75.0768 93.0595C75.9279 90.4608 78.7948 88.579 81.8409 88.579ZM172.596 63.1747H161.89C154.991 63.1747 149.258 68.5065 148.765 75.4064L148.003 86.4732C147.645 91.7154 151.811 96.1511 157.052 96.1959H177.434C182.72 96.1959 186.841 91.7602 186.483 86.4732L185.721 75.4064C185.228 68.5065 179.494 63.1747 172.596 63.1747ZM135.192 62.6371C128.652 68.8649 134.923 82.4408 123.008 88.1758C121.709 88.8031 120.589 86.7421 118.842 86.7421C113.869 86.7869 104.328 91.1777 103.97 93.3732C103.656 95.2102 107.733 96.6439 119.693 96.6887C130.13 96.6887 133.49 80.8278 137.118 80.8278C140.747 80.8278 139.044 95.2102 138.686 96.6887H142.494C142.18 95.2102 141.911 90.6849 141.956 84.3226C141.956 77.9603 143.121 76.5266 144.017 71.7325C144.778 67.5208 138.596 63.8916 135.192 62.6371ZM78.3468 68.9098C75.256 62.7715 71.2244 61.6962 69.2086 63.3092C67.6856 64.5189 64.102 69.4026 63.878 69.7162C59.9808 75.272 60.2048 76.6162 65.2218 79.7973C68.0439 81.5895 70.3285 79.3045 71.314 78.5876C70.8213 81.4999 69.3878 86.1148 67.2376 89.3855C66.073 88.4894 65.2218 87.8174 64.6843 87.3245C64.0124 86.6972 62.9821 86.7421 62.3102 87.3693C61.9966 87.683 61.8174 88.0862 61.8622 88.5342C61.8622 88.9823 62.0862 89.3855 62.3549 89.6544C67.596 94.4485 74.4497 97.1368 81.7513 97.1816C89.0977 97.1816 95.9962 94.4933 101.237 89.6544C101.909 89.0271 101.954 87.9966 101.327 87.3693C100.655 86.6973 99.6246 86.6972 98.9526 87.3245C98.5495 87.683 98.1463 88.0414 97.6984 88.3998L95.4138 83.2921C95.0555 82.396 94.6523 81.3207 94.2044 79.9765C94.4283 79.4389 94.9211 78.9012 95.593 78.1843C96.0858 77.6915 96.4889 77.1986 96.8025 76.7506C98.3255 74.3311 97.4744 72.9422 96.9817 72.0013C95.9066 69.8058 94.2044 70.5227 92.9501 71.8221C91.4271 73.435 89.9488 74.1071 87.5747 74.6448C85.6037 75.0928 84.0358 74.8688 82.7816 74.0623C81.0346 72.9422 78.3468 68.9098 78.3468 68.9098ZM49.0508 62.0546H48.1997C44.7056 62.2786 42.2867 63.802 40.9428 65.863C39.375 63.4884 36.4185 61.8306 31.9838 62.0994L31.8942 62.2338C31.4015 63.0403 29.4753 66.7143 32.5661 70.7019C33.1933 71.374 34.7611 73.3006 34.134 75.7201L25.0853 90.3264C24.3686 91.5362 24.6822 93.0595 25.802 93.866C28.1314 95.5238 32.8349 97.764 40.9876 97.764C49.1404 97.764 53.7991 95.5238 56.1284 93.866L56.442 93.5972C57.3379 92.7459 57.5171 91.4017 56.8451 90.3264L47.8413 75.7201L47.8861 75.9889L47.7965 75.5857C47.3038 73.3902 48.5132 71.6428 49.23 70.8812L49.4091 70.7019C52.5448 66.7143 50.6186 63.0403 50.0811 62.2338L49.9915 62.0994L49.0508 62.0546ZM93.0397 109.1H68.6711C66.2073 109.1 64.1468 111.116 64.1468 113.58V144.406C64.1468 146.87 66.1625 148.931 68.6711 148.931H93.0397C95.5034 148.931 97.564 146.915 97.5192 144.406C97.5192 141.942 95.5034 139.881 93.0397 139.881H73.1506V133.473H90.4416C92.9053 133.473 94.9659 131.457 94.9659 128.993C94.9659 126.529 92.9501 124.468 90.4416 124.468H73.1506V118.061H93.0397C95.5034 118.061 97.564 116.044 97.5192 113.535C97.5192 111.116 95.5034 109.1 93.0397 109.1ZM54.0678 109.1H27.773C25.3093 109.1 23.2487 111.116 23.2487 113.58C23.2487 116.044 25.2645 118.105 27.773 118.105H36.4185V144.406C36.4185 146.87 38.4343 148.931 40.898 148.931C43.3618 148.931 45.4224 146.915 45.4224 144.406V118.105H54.0678C56.5316 118.105 58.5922 116.089 58.5922 113.58C58.5922 111.071 56.5764 109.1 54.0678 109.1ZM180.57 109.1C178.106 109.1 176.045 111.116 176.045 113.58V132.443C176.045 138.357 172.686 141.404 167.221 141.404C161.756 141.404 158.396 138.268 158.396 132.174V113.58C158.396 111.116 156.38 109.055 153.872 109.1C151.408 109.1 149.347 111.116 149.392 113.58V132.353C149.392 143.33 156.111 148.931 167.086 148.931C178.061 148.931 185.049 143.375 185.049 132.084V113.58C185.049 111.116 183.078 109.1 180.57 109.1ZM110.823 109.1H108.046C105.582 109.1 103.522 111.116 103.567 113.58V144.451C103.567 146.915 105.582 148.976 108.046 148.976C110.51 148.976 112.57 146.96 112.57 144.451V124.199L120.141 134.907C121.709 137.103 124.979 137.103 126.591 134.907L134.162 124.199V144.451C134.162 146.915 136.177 148.976 138.686 148.976C141.195 148.976 143.21 146.96 143.166 144.451V113.58C143.166 111.116 141.15 109.055 138.686 109.1H135.909C134.834 109.1 133.803 109.592 133.221 110.489L123.411 125.274L113.556 110.489C112.929 109.637 111.898 109.1 110.823 109.1ZM163.323 0C189.081 0 210 20.879 210 46.6866V163.313C210 189.076 189.125 210 163.323 210H46.6766C20.9194 210 0 189.121 0 163.313V46.6866C0 20.9238 20.8746 0 46.6766 0H163.323Z" fill="#FB7701"/>
</svg>
