<svg width="172" height="172" viewBox="0 0 172 172" fill="none" xmlns="http://www.w3.org/2000/svg">
<rect x="0.5" y="0.5" width="171" height="171" rx="85.5" fill="white" stroke="#D5D5D5"/>
<path d="M94.0979 45.1829L94.0599 63.472L94.022 81.7611L92.2762 77.5154V77.5045L90.0117 118.22C92.2382 123.619 93.4274 126.504 93.4401 126.515C93.4527 126.526 94.7178 126.591 96.2485 126.656C100.879 126.852 106.622 127.277 110.987 127.745C111.999 127.854 112.859 127.908 112.922 127.865C112.985 127.821 112.998 109.206 112.985 86.4858L112.947 45.1829H94.0979Z" fill="url(#paint0_linear_4451_1320)"/>
<path d="M60 45.1281V86.4746C60 109.216 60.0253 127.843 60.0633 127.876C60.1012 127.908 61.7331 127.767 63.7067 127.582C65.6802 127.397 68.4001 127.157 69.7537 127.059C71.8284 126.907 78.0526 126.569 78.761 126.558C78.9761 126.558 78.9887 125.633 79.014 109.042L79.052 91.5259L80.5574 95.1838C80.7851 95.7499 80.861 95.924 81.0887 96.4792L83.3532 55.775C82.8725 54.6102 83.1255 55.2198 82.5815 53.8917C80.7345 49.3956 79.1658 45.5962 79.1026 45.4221L78.9761 45.1172H60V45.1281Z" fill="url(#paint1_linear_4451_1320)"/>
<path d="M60 45.1281L79.0394 91.5583V91.5365L80.5449 95.1943C88.907 115.563 93.3981 126.493 93.4234 126.514C93.436 126.525 94.7011 126.591 96.2318 126.656C100.862 126.852 106.605 127.276 110.97 127.744C111.969 127.853 112.842 127.908 112.893 127.864L94.018 81.7497V81.7606L92.2722 77.515C90.5643 73.3673 89.4257 70.5913 82.5563 53.8916C80.7093 49.3956 79.1406 45.5962 79.0774 45.4221L78.9509 45.1172H69.4754L60 45.1281Z" fill="#E30A17"/>
<defs>
<linearGradient id="paint0_linear_4451_1320" x1="121.487" y1="107.015" x2="91.3177" y2="120.265" gradientUnits="userSpaceOnUse">
<stop stop-color="#B20610"/>
<stop offset="0.255959" stop-color="#B20610"/>
<stop offset="1" stop-color="#590004"/>
</linearGradient>
<linearGradient id="paint1_linear_4451_1320" x1="50.8513" y1="63.2581" x2="83.4785" y2="49.0949" gradientUnits="userSpaceOnUse">
<stop stop-color="#B20610"/>
<stop offset="0.255959" stop-color="#B20610"/>
<stop offset="1" stop-color="#590004"/>
</linearGradient>
</defs>
</svg>
