<svg width="101" height="83" viewBox="0 0 101 83" fill="none" xmlns="http://www.w3.org/2000/svg">
<path d="M25.0561 0.200679C24.6727 0.259432 24.3055 1.66951 23.5652 2.40392C23.0247 2.93417 22.3491 2.90039 21.9892 3.55695C21.8526 3.80225 21.8967 4.21939 21.7424 4.62038C21.4399 5.42236 20.3764 5.49434 20.3764 6.36976C20.372 7.31422 21.2636 7.49488 22.0347 8.16467C22.6369 8.70373 22.6957 9.07534 23.4242 9.33679C24.047 9.5483 24.9724 8.85649 25.8067 9.10472C26.4912 9.30888 27.1462 9.45577 27.3019 10.1593C27.4385 10.8071 27.2931 11.8118 26.4618 11.6957C26.1812 11.6649 24.9694 11.2551 23.4771 11.4137C21.6778 11.6179 19.6258 12.2054 19.4261 14.2104C19.3159 15.3311 20.701 16.653 22.0406 16.3842C22.966 16.2021 22.5283 15.1108 23.0321 14.5805C23.693 13.9019 27.4371 16.9512 30.9182 16.9512C32.3841 16.9512 33.474 16.5811 34.5565 15.4471C34.6578 15.3605 34.7812 15.1754 34.9369 15.1636C35.0838 15.1754 35.3423 15.3208 35.426 15.3825C38.23 17.6357 40.3481 22.1553 50.6519 22.2081C52.1002 22.2155 53.7511 22.9073 55.0995 24.1367C56.301 25.2486 57.0046 26.9774 57.6876 28.7312C58.7187 31.3633 60.5665 33.925 63.369 36.7745C63.5218 36.9273 65.8278 38.7207 66.0129 38.8544C66.0423 38.8735 66.2112 39.2774 66.1525 39.5036C66.0849 41.2118 65.8352 46.1809 69.5396 46.4056C70.4458 46.4512 70.2079 45.8152 70.2079 45.376C70.2064 44.5108 70.0478 43.6516 70.5046 42.7659C71.1289 41.5467 69.1812 40.9856 69.2385 38.352C69.2796 36.3882 67.6301 36.7231 66.7914 35.2264C66.3096 34.3598 65.8807 33.8985 65.9116 32.838C66.0996 26.8702 64.641 22.9499 63.914 21.9863C63.347 21.2593 62.877 20.9699 63.3969 20.6336C66.4874 18.5919 67.1895 16.6927 67.1895 16.6927C68.8331 12.8282 70.3122 9.30007 72.3494 7.74605C72.7607 7.42585 73.8124 6.64002 74.4587 6.3301C76.3608 5.43412 77.3611 4.89065 77.9134 4.35306C78.7873 3.50114 79.4777 1.72385 78.6404 0.647203C77.599 -0.682087 75.7968 0.372532 75.0007 0.844026C69.3178 4.21646 68.4806 10.1667 66.5123 13.5832C64.9421 16.3137 62.3893 18.3172 60.1068 18.4817C58.3941 18.608 56.5507 18.2629 54.7132 17.4565C50.245 15.4985 47.8009 12.9692 47.2251 12.5212C46.0251 11.5959 36.7069 2.44799 29.1571 2.0749C29.1571 2.0749 28.22 0.19921 27.985 0.168365C27.4327 0.0978612 26.8672 1.28908 26.4632 1.42715C26.0828 1.55347 25.4409 0.136051 25.0561 0.19921" fill="black"/>
<path d="M97.1322 79.8555L97.188 79.8349C97.661 79.6983 98.0003 79.2357 98.0003 78.7142C98.0003 77.9343 97.426 77.5259 96.3449 77.5259H95.5488V81.5329H96.3067V79.948L97.4965 81.5329H98.4233L97.1322 79.8555ZM96.3067 79.2988V78.2089H96.461C96.9853 78.2089 97.26 78.3837 97.26 78.7245C97.26 79.1064 96.9765 79.2988 96.4375 79.2988H96.3067Z" fill="black"/>
<path d="M97.1322 79.8555L97.188 79.8349C97.661 79.6983 98.0003 79.2357 98.0003 78.7142C98.0003 77.9343 97.426 77.5259 96.3449 77.5259H95.5488V81.5329H96.3067V79.948L97.4965 81.5329H98.4233L97.1322 79.8555ZM96.3067 79.2988V78.2089H96.461C96.9853 78.2089 97.26 78.3837 97.26 78.7245C97.26 79.1064 96.9765 79.2988 96.4375 79.2988H96.3067Z" fill="black"/>
<path d="M96.7392 76.0419C94.8709 76.0419 93.3242 77.6239 93.3242 79.5186C93.3242 81.4134 94.8709 82.9998 96.7965 82.9998C98.7222 82.9998 100.241 81.4384 100.241 79.5186C100.241 77.5989 98.7016 76.0419 96.7392 76.0419ZM96.7965 82.5018C95.1882 82.5018 93.878 81.1667 93.878 79.5275C93.878 77.8882 95.1882 76.5472 96.7466 76.5472H96.7965C98.3931 76.5472 99.6843 77.8912 99.6843 79.5275C99.6843 81.1637 98.3931 82.5018 96.7965 82.5018Z" fill="black"/>
<path d="M29.8498 79.4702C29.1389 79.454 28.5352 78.8694 28.5352 78.1482V54.6H20.7754V80.5571C20.7754 81.8291 21.8065 82.8676 23.0712 82.8676H36.6358C37.9093 82.8676 38.9272 81.8291 38.9272 80.5571V54.6H31.1732L31.1659 78.1482C31.1659 78.8694 30.5622 79.454 29.8483 79.4702" fill="black"/>
<path d="M55.8346 54.6006H44.0884C42.6989 54.6006 41.5664 55.7316 41.5664 57.1358V82.8682H49.335V59.2627C49.3409 58.5386 49.9255 57.9672 50.6482 57.9672C51.3708 57.9672 51.9554 58.5268 51.9716 59.2436V82.8682H59.7094V59.2421C59.7182 58.5268 60.2998 57.9672 61.024 57.9672C61.7481 57.9672 62.3342 58.54 62.3401 59.2627V82.8682H70.1087V57.1344C70.1087 55.7302 68.9747 54.5992 67.5852 54.5992H55.8375L55.8346 54.6006Z" fill="black"/>
<path d="M15.6474 54.6019H0V82.8695H7.75688V75.7647H15.5975C17.0061 75.7647 18.1415 74.6293 18.1415 73.2193V57.1473C18.1415 55.7387 17.0487 54.6019 15.6474 54.6019ZM10.389 70.9382C10.3949 71.7211 9.76036 72.266 9.07589 72.266H7.75688V57.9684H9.07589C9.75449 57.9684 10.3949 58.528 10.389 59.3139V70.9382Z" fill="black"/>
<path d="M97.1125 79.8554L97.1683 79.8348C97.6413 79.6982 97.9806 79.2355 97.9806 78.7141C97.9806 77.9342 97.4063 77.5258 96.3252 77.5258H95.5291V81.5328H96.287V79.9479L97.4768 81.5328H98.4036L97.1125 79.8554ZM96.287 79.2987V78.2088H96.4412C96.9656 78.2088 97.2403 78.3836 97.2403 78.7244C97.2403 79.1063 96.9568 79.2987 96.4177 79.2987H96.287ZM88.3612 54.6018H75.2622C73.8727 54.6018 72.7402 55.7313 72.7402 57.1355V82.8694H80.4942V75.7735H83.1293V82.8694H90.8876V57.1355C90.8876 55.7313 89.7551 54.6018 88.3612 54.6018ZM83.1293 72.2718H80.4942V59.2756C80.5001 58.5574 81.092 57.983 81.8088 57.983C82.5256 57.983 83.1116 58.5353 83.1293 59.2551V72.2718Z" fill="black"/>
</svg>
