<svg width="38" height="30" viewBox="0 0 38 30" fill="none" xmlns="http://www.w3.org/2000/svg">
<path d="M28.8442 0H8.25828C3.69736 0 0 3.69736 0 8.25828V20.9553C0 25.5163 3.69736 29.2136 8.25828 29.2136H28.8442C33.4052 29.2136 37.1025 25.5163 37.1025 20.9553V8.25828C37.1025 3.69736 33.4052 0 28.8442 0Z" fill="#EAFF1F"/>
<path d="M24.7862 6.90283C22.0715 6.90283 19.6854 8.32946 18.3341 10.4718C18.036 9.99782 17.6836 9.54899 17.2715 9.13682C15.8313 7.69661 13.9164 6.90351 11.8793 6.90351C9.84227 6.90351 7.92742 7.69661 6.48721 9.13682C5.04701 10.577 4.25391 12.4919 4.25391 14.5289C4.25391 16.566 5.04701 18.4809 6.48721 19.9211C7.92742 21.3613 9.84227 22.1544 11.8793 22.1544C13.9164 22.1544 15.8313 21.3613 17.2715 19.9211C17.6836 19.5089 18.0367 19.0601 18.3341 18.5861C19.6861 20.7277 22.0722 22.1551 24.7862 22.1551C28.9914 22.1551 32.4123 18.7341 32.4123 14.5289C32.4123 10.3238 28.9914 6.90283 24.7862 6.90283ZM15.6133 18.2629C14.6158 19.2604 13.2897 19.8097 11.8787 19.8097C10.4676 19.8097 9.14151 19.2604 8.14403 18.2629C7.14654 17.2654 6.59722 15.9393 6.59722 14.5283C6.59722 13.1173 7.14654 11.7911 8.14403 10.7936C9.14151 9.79615 10.4676 9.24682 11.8787 9.24682C13.2897 9.24682 14.6158 9.79615 15.6133 10.7936C17.6728 12.8531 17.6728 16.2041 15.6133 18.2629ZM24.7862 19.8104C21.8739 19.8104 19.5048 17.4413 19.5048 14.5289C19.5048 11.6166 21.8739 9.2475 24.7862 9.2475C27.6985 9.2475 30.0677 11.6166 30.0677 14.5289C30.0677 17.4413 27.6985 19.8104 24.7862 19.8104Z" fill="black" class="eyemob"/> 
<path d="M32.8467 6.4657C31.1607 4.77969 29.0299 3.67967 26.686 3.28516L26.2969 5.59655C28.1581 5.90958 29.8495 6.78348 31.1892 8.1232L32.8467 6.4657Z" fill="black" class="eyemob"/>
<path d="M11.8809 23.5862V25.9302C14.2656 25.9302 16.5498 25.2016 18.4864 23.8232L17.127 21.9131C15.5897 23.0077 13.7753 23.5862 11.8809 23.5862Z" fill="black"/>
<path d="M22.7343 15.1354C23.868 15.1354 24.787 14.2164 24.787 13.0827C24.787 11.949 23.868 11.03 22.7343 11.03C21.6007 11.03 20.6816 11.949 20.6816 13.0827C20.6816 14.2164 21.6007 15.1354 22.7343 15.1354Z" fill="black" id="leftPupilmob"/>
<path d="M9.82613 15.1354C10.9598 15.1354 11.8788 14.2164 11.8788 13.0827C11.8788 11.949 10.9598 11.03 9.82613 11.03C8.69246 11.03 7.77344 11.949 7.77344 13.0827C7.77344 14.2164 8.69246 15.1354 9.82613 15.1354Z" fill="black" id="rightPupilmob"/>
</svg>
