<svg width="86" height="86" viewBox="0 0 86 86" fill="none" xmlns="http://www.w3.org/2000/svg">
<circle cx="42.9984" cy="43.0023" r="41.9984" fill="#F8F8F8" stroke="black" stroke-width="0.308811"/>
<path d="M30.998 22.9485C30.813 22.9768 30.6359 23.657 30.2788 24.0112C30.0181 24.267 29.6922 24.2507 29.5186 24.5674C29.4527 24.6857 29.474 24.887 29.3996 25.0804C29.2536 25.4672 28.7407 25.5019 28.7407 25.9242C28.7385 26.3798 29.1686 26.4669 29.5406 26.79C29.8311 27.05 29.8594 27.2293 30.2108 27.3554C30.5112 27.4574 30.9576 27.1237 31.36 27.2434C31.6902 27.3419 32.0062 27.4128 32.0813 27.7521C32.1472 28.0646 32.077 28.5492 31.676 28.4932C31.5407 28.4784 30.9562 28.2807 30.2363 28.3572C29.3684 28.4557 28.3786 28.7391 28.2823 29.7062C28.2291 30.2468 28.8973 30.8844 29.5434 30.7548C29.9898 30.6669 29.7786 30.1405 30.0216 29.8847C30.3405 29.5574 32.1465 31.0283 33.8256 31.0283C34.5327 31.0283 35.0584 30.8497 35.5806 30.3028C35.6295 30.261 35.689 30.1717 35.7641 30.166C35.8349 30.1717 35.9596 30.2418 36 30.2716C37.3525 31.3584 38.3742 33.5385 43.3444 33.564C44.0429 33.5675 44.8393 33.9013 45.4897 34.4943C46.0693 35.0306 46.4086 35.8645 46.7381 36.7105C47.2355 37.9801 48.1268 39.2157 49.4786 40.5902C49.5523 40.6639 50.6646 41.529 50.7539 41.5935C50.7681 41.6027 50.8495 41.7975 50.8212 41.9066C50.7886 42.7306 50.6682 45.1275 52.455 45.2359C52.8922 45.2579 52.7774 44.9511 52.7774 44.7392C52.7767 44.3219 52.7002 43.9075 52.9205 43.4802C53.2216 42.8922 52.2821 42.6215 52.3098 41.3512C52.3296 40.4039 51.534 40.5654 51.1294 39.8435C50.897 39.4255 50.6901 39.203 50.705 38.6914C50.7957 35.8128 50.0922 33.9218 49.7414 33.457C49.468 33.1063 49.2412 32.9667 49.4921 32.8045C50.9827 31.8197 51.3214 30.9036 51.3214 30.9036C52.1142 29.0395 52.8277 27.3377 53.8104 26.5881C54.0088 26.4336 54.5161 26.0546 54.8278 25.9051C55.7453 25.4729 56.2278 25.2107 56.4942 24.9514C56.9158 24.5405 57.2488 23.6832 56.8449 23.1639C56.3426 22.5227 55.4732 23.0314 55.0892 23.2588C52.348 24.8855 51.9442 27.7557 50.9948 29.4037C50.2374 30.7208 49.006 31.6872 47.905 31.7665C47.0789 31.8275 46.1897 31.661 45.3034 31.272C43.1481 30.3276 41.9692 29.1075 41.6914 28.8914C41.1126 28.4451 36.6178 24.0325 32.9761 23.8525C32.9761 23.8525 32.5241 22.9478 32.4107 22.9329C32.1443 22.8989 31.8716 23.4735 31.6767 23.5401C31.4932 23.601 31.1836 22.9173 30.998 22.9478" fill="black"/>
<path d="M65.7638 61.3706L65.7907 61.3607C66.0188 61.2948 66.1825 61.0716 66.1825 60.8201C66.1825 60.4439 65.9055 60.2469 65.384 60.2469H65V62.1797H65.3656V61.4153L65.9395 62.1797H66.3865L65.7638 61.3706ZM65.3656 61.1021V60.5764H65.44C65.6929 60.5764 65.8254 60.6607 65.8254 60.8251C65.8254 61.0093 65.6887 61.1021 65.4286 61.1021H65.3656Z" fill="black"/>
<path d="M65.7638 61.3706L65.7907 61.3607C66.0188 61.2948 66.1825 61.0716 66.1825 60.8201C66.1825 60.4439 65.9055 60.2469 65.384 60.2469H65V62.1797H65.3656V61.4153L65.9395 62.1797H66.3865L65.7638 61.3706ZM65.3656 61.1021V60.5764H65.44C65.6929 60.5764 65.8254 60.6607 65.8254 60.8251C65.8254 61.0093 65.6887 61.1021 65.4286 61.1021H65.3656Z" fill="black"/>
<path d="M65.575 59.5314C64.6738 59.5314 63.9277 60.2944 63.9277 61.2084C63.9277 62.1224 64.6738 62.8876 65.6026 62.8876C66.5315 62.8876 67.2641 62.1344 67.2641 61.2084C67.2641 60.2824 66.5216 59.5314 65.575 59.5314ZM65.6026 62.6474C64.8268 62.6474 64.1948 62.0033 64.1948 61.2127C64.1948 60.422 64.8268 59.7751 65.5786 59.7751H65.6026C66.3728 59.7751 66.9956 60.4234 66.9956 61.2127C66.9956 62.0019 66.3728 62.6474 65.6026 62.6474Z" fill="black"/>
<path d="M33.3107 61.1851C32.9678 61.1773 32.6766 60.8953 32.6766 60.5475V49.1887H28.9336V61.7094C28.9336 62.323 29.431 62.8239 30.041 62.8239H36.584C37.1983 62.8239 37.6893 62.323 37.6893 61.7094V49.1887H33.9491L33.9456 60.5475C33.9456 60.8953 33.6544 61.1773 33.31 61.1851" fill="black"/>
<path d="M45.8453 49.1887H40.1794C39.5091 49.1887 38.9629 49.7342 38.9629 50.4116V62.8239H42.7102V51.4375C42.713 51.0882 42.995 50.8126 43.3436 50.8126C43.6922 50.8126 43.9741 51.0825 43.9819 51.4283V62.8239H47.7143V51.4276C47.7186 51.0825 47.9992 50.8126 48.3484 50.8126C48.6977 50.8126 48.9804 51.0889 48.9833 51.4375V62.8239H52.7305V50.4109C52.7305 49.7335 52.1836 49.188 51.5133 49.188H45.8467L45.8453 49.1887Z" fill="black"/>
<path d="M26.4598 49.1896H18.9121V62.8247H22.6537V59.3977H26.4357C27.1152 59.3977 27.6628 58.85 27.6628 58.1699V50.4174C27.6628 49.738 27.1357 49.1896 26.4598 49.1896ZM23.9234 57.0696C23.9262 57.4472 23.6201 57.71 23.29 57.71H22.6537V50.8135H23.29C23.6173 50.8135 23.9262 51.0834 23.9234 51.4625V57.0696Z" fill="black"/>
<path d="M65.7562 61.3708L65.7831 61.3608C66.0113 61.295 66.1749 61.0718 66.1749 60.8203C66.1749 60.444 65.8979 60.2471 65.3764 60.2471H64.9924V62.1799H65.358V61.4154L65.9319 62.1799H66.379L65.7562 61.3708ZM65.358 61.1022V60.5765H65.4324C65.6854 60.5765 65.8178 60.6608 65.8178 60.8252C65.8178 61.0094 65.6811 61.1022 65.4211 61.1022H65.358ZM61.5349 49.1895H55.2165C54.5463 49.1895 54 49.7343 54 50.4116V62.8246H57.7402V59.4018H59.0113V62.8246H62.7536V50.4116C62.7536 49.7343 62.2073 49.1895 61.5349 49.1895ZM59.0113 57.7128H57.7402V51.4439C57.743 51.0975 58.0286 50.8204 58.3743 50.8204C58.7201 50.8204 59.0027 51.0868 59.0113 51.434V57.7128Z" fill="black"/>
</svg>
