<svg width="50" height="41" viewBox="0 0 50 41" fill="none" xmlns="http://www.w3.org/2000/svg">
<path d="M12.998 0.948484C12.813 0.976824 12.6359 1.65699 12.2788 2.01124C12.0181 2.26701 11.6922 2.25072 11.5186 2.56742C11.4527 2.68574 11.474 2.88695 11.3996 3.08037C11.2536 3.46722 10.7407 3.50193 10.7407 3.9242C10.7385 4.37977 11.1686 4.46692 11.5406 4.78999C11.8311 5.05002 11.8594 5.22927 12.2108 5.35538C12.5112 5.4574 12.9576 5.1237 13.36 5.24344C13.6902 5.34192 14.0062 5.41277 14.0813 5.75214C14.1472 6.06459 14.077 6.54921 13.676 6.49324C13.5407 6.47836 12.9562 6.28069 12.2363 6.35721C11.3684 6.45569 10.3786 6.73909 10.2823 7.7062C10.2291 8.24679 10.8973 8.88444 11.5434 8.75478C11.9898 8.66693 11.7786 8.14051 12.0216 7.88474C12.3405 7.55741 14.1465 9.02827 15.8256 9.02827C16.5327 9.02827 17.0584 8.84972 17.5806 8.30276C17.6295 8.26096 17.689 8.17168 17.7641 8.16602C17.8349 8.17168 17.9596 8.24183 18 8.27158C19.3525 9.35843 20.3742 11.5385 25.3444 11.564C26.0429 11.5675 26.8393 11.9013 27.4897 12.4943C28.0693 13.0306 28.4086 13.8645 28.7381 14.7105C29.2355 15.9801 30.1268 17.2157 31.4786 18.5902C31.5523 18.6639 32.6646 19.529 32.7539 19.5935C32.7681 19.6027 32.8495 19.7975 32.8212 19.9066C32.7886 20.7306 32.6682 23.1275 34.455 23.2359C34.8922 23.2579 34.7774 22.9511 34.7774 22.7392C34.7767 22.3219 34.7002 21.9075 34.9205 21.4802C35.2216 20.8922 34.2821 20.6215 34.3098 19.3512C34.3296 18.4039 33.534 18.5654 33.1294 17.8435C32.897 17.4255 32.6901 17.203 32.705 16.6914C32.7957 13.8128 32.0922 11.9218 31.7414 11.457C31.468 11.1063 31.2412 10.9667 31.4921 10.8045C32.9827 9.81967 33.3214 8.90357 33.3214 8.90357C34.1142 7.03949 34.8277 5.33767 35.8104 4.58807C36.0088 4.43362 36.5161 4.05457 36.8278 3.90507C37.7453 3.47288 38.2278 3.21074 38.4942 2.95143C38.9158 2.54049 39.2488 1.6832 38.8449 1.16387C38.3426 0.522673 37.4732 1.03138 37.0892 1.25881C34.348 2.88553 33.9442 5.75568 32.9948 7.40367C32.2374 8.72077 31.006 9.68718 29.905 9.76653C29.0789 9.82746 28.1897 9.66096 27.3034 9.27199C25.1481 8.32756 23.9692 7.10751 23.6914 6.89142C23.1126 6.44506 18.6178 2.0325 14.9761 1.85254C14.9761 1.85254 14.5241 0.947776 14.4107 0.932897C14.1443 0.898889 13.8716 1.47349 13.6767 1.54009C13.4932 1.60102 13.1836 0.918019 12.998 0.948484Z" fill="black"/>
<path d="M47.7638 39.3706L47.7907 39.3607C48.0188 39.2948 48.1825 39.0716 48.1825 38.8201C48.1825 38.4439 47.9055 38.2469 47.384 38.2469H47V40.1797H47.3656V39.4153L47.9395 40.1797H48.3865L47.7638 39.3706ZM47.3656 39.1021V38.5764H47.44C47.6929 38.5764 47.8254 38.6607 47.8254 38.8251C47.8254 39.0093 47.6887 39.1021 47.4286 39.1021H47.3656Z" fill="black"/>
<path d="M47.7638 39.3706L47.7907 39.3607C48.0188 39.2948 48.1825 39.0716 48.1825 38.8201C48.1825 38.4439 47.9055 38.2469 47.384 38.2469H47V40.1797H47.3656V39.4153L47.9395 40.1797H48.3865L47.7638 39.3706ZM47.3656 39.1021V38.5764H47.44C47.6929 38.5764 47.8254 38.6607 47.8254 38.8251C47.8254 39.0093 47.6887 39.1021 47.4286 39.1021H47.3656Z" fill="black"/>
<path d="M47.575 37.5314C46.6738 37.5314 45.9277 38.2944 45.9277 39.2084C45.9277 40.1224 46.6738 40.8876 47.6026 40.8876C48.5315 40.8876 49.2641 40.1344 49.2641 39.2084C49.2641 38.2824 48.5216 37.5314 47.575 37.5314ZM47.6026 40.6474C46.8268 40.6474 46.1948 40.0033 46.1948 39.2127C46.1948 38.422 46.8268 37.7751 47.5786 37.7751H47.6026C48.3728 37.7751 48.9956 38.4234 48.9956 39.2127C48.9956 40.0019 48.3728 40.6474 47.6026 40.6474Z" fill="black"/>
<path d="M15.3107 39.1851C14.9678 39.1773 14.6766 38.8953 14.6766 38.5475V27.1887H10.9336V39.7094C10.9336 40.323 11.431 40.8239 12.041 40.8239H18.584C19.1983 40.8239 19.6893 40.323 19.6893 39.7094V27.1887H15.9491L15.9456 38.5475C15.9456 38.8953 15.6544 39.1773 15.31 39.1851" fill="black"/>
<path d="M27.8453 27.1887H22.1794C21.5091 27.1887 20.9629 27.7342 20.9629 28.4116V40.8239H24.7102V29.4375C24.713 29.0882 24.995 28.8126 25.3436 28.8126C25.6922 28.8126 25.9741 29.0825 25.9819 29.4283V40.8239H29.7143V29.4276C29.7186 29.0825 29.9992 28.8126 30.3484 28.8126C30.6977 28.8126 30.9804 29.0889 30.9833 29.4375V40.8239H34.7305V28.4109C34.7305 27.7335 34.1836 27.188 33.5133 27.188H27.8467L27.8453 27.1887Z" fill="black"/>
<path d="M8.4598 27.1896H0.912109V40.8247H4.65372V37.3977H8.43571C9.11517 37.3977 9.66284 36.85 9.66284 36.1699V28.4174C9.66284 27.738 9.13572 27.1896 8.4598 27.1896ZM5.92336 35.0696C5.92619 35.4472 5.62012 35.71 5.28996 35.71H4.65372V28.8135H5.28996C5.61729 28.8135 5.92619 29.0834 5.92336 29.4625V35.0696Z" fill="black"/>
<path d="M47.7562 39.3708L47.7831 39.3608C48.0113 39.295 48.1749 39.0718 48.1749 38.8203C48.1749 38.444 47.8979 38.2471 47.3764 38.2471H46.9924V40.1799H47.358V39.4154L47.9319 40.1799H48.379L47.7562 39.3708ZM47.358 39.1022V38.5765H47.4324C47.6854 38.5765 47.8178 38.6608 47.8178 38.8252C47.8178 39.0094 47.6811 39.1022 47.4211 39.1022H47.358ZM43.5349 27.1895H37.2165C36.5463 27.1895 36 27.7343 36 28.4116V40.8246H39.7402V37.4018H41.0113V40.8246H44.7536V28.4116C44.7536 27.7343 44.2073 27.1895 43.5349 27.1895ZM41.0113 35.7128H39.7402V29.4439C39.743 29.0975 40.0286 28.8204 40.3743 28.8204C40.7201 28.8204 41.0027 29.0868 41.0113 29.434V35.7128Z" fill="black"/>
</svg>
