<svg width="172" height="172" viewBox="0 0 172 172" fill="none" xmlns="http://www.w3.org/2000/svg">
<rect x="0.5" y="0.5" width="171" height="171" rx="85.5" fill="white" stroke="#D5D5D5"/>
<path d="M85.9997 40C60.5953 40 40 60.5953 40 86.0003C40 111.406 60.5953 132 85.9997 132C111.407 132 132 111.406 132 86.0003C132 60.5969 111.407 40.0022 85.9992 40.0022L85.9997 40ZM107.095 106.346C106.271 107.697 104.502 108.125 103.151 107.296C92.3507 100.699 78.7545 99.2046 62.7425 102.863C61.1995 103.215 59.6615 102.248 59.31 100.704C58.9568 99.1606 59.9197 97.6226 61.4665 97.271C78.9891 93.2676 94.0195 94.9914 106.145 102.402C107.496 103.231 107.924 104.994 107.095 106.346ZM112.725 93.8202C111.687 95.5077 109.479 96.0405 107.793 95.0024C95.4278 87.4021 76.5798 85.201 61.9548 89.6406C60.0581 90.2135 58.0548 89.1445 57.4792 87.2511C56.9079 85.3543 57.9774 83.3548 59.8708 82.778C76.5765 77.709 97.3449 80.1644 111.544 88.8902C113.231 89.9284 113.763 92.1361 112.725 93.8202ZM113.209 80.7774C98.3831 71.9715 73.9229 71.1618 59.7681 75.4579C57.4951 76.1473 55.0914 74.8641 54.4026 72.5911C53.7137 70.3169 54.9958 67.9148 57.2704 67.2238C73.5192 62.291 100.531 63.244 117.6 73.3771C119.649 74.5906 120.319 77.2311 119.105 79.2729C117.896 81.3174 115.249 81.9914 113.211 80.7774H113.209Z" fill="#1DB954"/>
<path d="M113.209 80.7774C98.3831 71.9715 73.9229 71.1618 59.7681 75.4579C57.4951 76.1473 55.0914 74.8641 54.4026 72.5911C53.7137 70.3169 54.9958 67.9148 57.2704 67.2238C73.5192 62.291 100.531 63.244 117.6 73.3771C119.649 74.5906 120.319 77.2311 119.105 79.2729C117.896 81.3174 115.249 81.9914 113.211 80.7774H113.209Z" fill="#191414"/>
<path d="M112.725 93.8202C111.687 95.5077 109.479 96.0405 107.793 95.0024C95.4278 87.4021 76.5798 85.201 61.9548 89.6406C60.0581 90.2135 58.0548 89.1445 57.4792 87.2511C56.9079 85.3543 57.9774 83.3548 59.8708 82.778C76.5765 77.709 97.3449 80.1644 111.544 88.8902C113.231 89.9284 113.763 92.1361 112.725 93.8202Z" fill="#191414"/>
<path d="M107.095 106.346C106.271 107.697 104.502 108.125 103.151 107.296C92.3507 100.699 78.7545 99.2046 62.7425 102.863C61.1995 103.215 59.6615 102.248 59.31 100.704C58.9568 99.1606 59.9197 97.6226 61.4665 97.271C78.9891 93.2676 94.0195 94.9914 106.145 102.402C107.496 103.231 107.924 104.994 107.095 106.346Z" fill="#191414"/>
</svg>
