<svg width="91" height="91" viewBox="0 0 91 91" fill="none" xmlns="http://www.w3.org/2000/svg">
<path d="M70.0679 31.1889V31.3232C70.0679 32.4548 71.0075 33.3946 72.1389 33.3946C73.2703 33.3946 74.2099 32.4548 74.2099 31.3232V31.1889C74.2099 30.6711 76.0508 30.6711 76.0508 31.1889V31.3232C76.0508 33.4905 74.2866 35.2359 72.1197 35.2359C69.9528 35.2359 68.2078 33.4714 68.2078 31.3232V31.1889C68.227 30.6902 70.0679 30.6902 70.0679 31.1889ZM35.5893 38.1513C36.97 38.1513 38.0247 38.8226 38.4082 40.0885C37.4686 40.3379 36.529 40.4529 35.5702 40.4529C34.132 40.4529 33.6142 40.3187 32.6937 40.0693C33.0581 38.9569 34.2854 38.1513 35.5893 38.1513ZM74.44 27.2762H69.8569C66.9038 27.2762 64.4493 29.5586 64.2383 32.5124L63.9124 37.2498C63.7589 39.4939 65.5423 41.3928 67.7859 41.4119H76.511C78.7738 41.4119 80.538 39.5131 80.3846 37.2498L80.0586 32.5124C79.8477 29.5586 77.3931 27.2762 74.44 27.2762ZM58.428 27.046C55.6283 29.7121 58.313 35.5236 53.2121 37.9787C52.656 38.2472 52.1766 37.3649 51.4287 37.3649C49.3002 37.3841 45.2157 39.2638 45.0623 40.2036C44.9281 40.99 46.6731 41.6037 51.7931 41.6229C56.2611 41.6229 57.6993 34.8331 59.2526 34.8331C60.8058 34.8331 60.0771 40.99 59.9237 41.6229H61.5537C61.4195 40.99 61.3044 39.0528 61.3236 36.3292C61.3236 33.6056 61.8222 32.9919 62.2057 30.9396C62.5317 29.1367 59.8854 27.5831 58.428 27.046ZM34.0936 29.7312C32.7705 27.1036 31.0446 26.6432 30.1817 27.3337C29.5297 27.8516 27.9956 29.9422 27.8997 30.0765C26.2314 32.4548 26.3273 33.0302 28.475 34.392C29.6831 35.1592 30.6611 34.181 31.083 33.8741C30.872 35.1208 30.2584 37.0964 29.3379 38.4966C28.8394 38.113 28.475 37.8253 28.2449 37.6143C27.9573 37.3457 27.5162 37.3649 27.2286 37.6334C27.0943 37.7677 27.0176 37.9403 27.0368 38.1321C27.0368 38.3239 27.1327 38.4966 27.2477 38.6116C29.4913 40.6639 32.4253 41.8147 35.551 41.8339C38.6959 41.8339 41.649 40.6831 43.8926 38.6116C44.1802 38.3431 44.1994 37.902 43.9309 37.6334C43.6433 37.3457 43.2022 37.3457 42.9146 37.6143C42.742 37.7677 42.5694 37.9212 42.3777 38.0746L41.3997 35.8881C41.2463 35.5045 41.0737 35.0441 40.8819 34.4687C40.9778 34.2386 41.1887 34.0084 41.4764 33.7015C41.6873 33.4905 41.8599 33.2796 41.9941 33.0878C42.6461 32.052 42.2818 31.4574 42.0708 31.0547C41.6106 30.1148 40.8819 30.4217 40.345 30.9779C39.693 31.6684 39.0602 31.9561 38.0439 32.1863C37.2001 32.3781 36.529 32.2822 35.992 31.9369C35.2442 31.4574 34.0936 29.7312 34.0936 29.7312ZM21.5525 26.7967H21.1881C19.6924 26.8926 18.6569 27.5447 18.0816 28.427C17.4104 27.4104 16.1448 26.7008 14.2464 26.8159L14.208 26.8734C13.9971 27.2186 13.1725 28.7914 14.4957 30.4984C14.7641 30.7861 15.4353 31.6109 15.1668 32.6466L11.2933 38.8993C10.9865 39.4172 11.1207 40.0693 11.6001 40.4146C12.5972 41.1242 14.6107 42.0832 18.1008 42.0832C21.5908 42.0832 23.5851 41.1242 24.5823 40.4146L24.7165 40.2995C25.1 39.9351 25.1767 39.3597 24.8891 38.8993L21.0347 32.6466L21.0539 32.7617L21.0155 32.5891C20.8046 31.6492 21.3223 30.9012 21.6292 30.5752L21.7059 30.4984C23.0482 28.7914 22.2236 27.2186 21.9935 26.8734L21.9552 26.8159L21.5525 26.7967ZM40.3833 46.9358H29.9516C28.8969 46.9358 28.0148 47.7989 28.0148 48.8538V62.0498C28.0148 63.1047 28.8777 63.987 29.9516 63.987H40.3833C41.438 63.987 42.3201 63.1239 42.3009 62.0498C42.3009 60.9949 41.438 60.1126 40.3833 60.1126H31.8692V57.3698H39.2711C40.3258 57.3698 41.2079 56.5067 41.2079 55.4518C41.2079 54.3969 40.345 53.5146 39.2711 53.5146H31.8692V50.7718H40.3833C41.438 50.7718 42.3201 49.9087 42.3009 48.8347C42.3009 47.7989 41.438 46.9358 40.3833 46.9358ZM23.7002 46.9358H12.4438C11.3892 46.9358 10.5071 47.7989 10.5071 48.8538C10.5071 49.9087 11.37 50.791 12.4438 50.791H16.1448V62.0498C16.1448 63.1047 17.0077 63.987 18.0624 63.987C19.1171 63.987 19.9992 63.1239 19.9992 62.0498V50.791H23.7002C24.7549 50.791 25.637 49.9279 25.637 48.8538C25.637 47.7797 24.774 46.9358 23.7002 46.9358ZM77.8533 46.9358C76.7987 46.9358 75.9166 47.7989 75.9166 48.8538V56.9287C75.9166 59.4604 74.4784 60.7647 72.1389 60.7647C69.7994 60.7647 68.3612 59.4221 68.3612 56.8136V48.8538C68.3612 47.7989 67.4983 46.9166 66.4244 46.9358C65.3697 46.9358 64.4876 47.7989 64.5068 48.8538V56.8903C64.5068 61.5894 67.3832 63.987 72.0814 63.987C76.7795 63.987 79.771 61.6086 79.771 56.7752V48.8538C79.771 47.7989 78.9272 46.9358 77.8533 46.9358ZM47.9962 46.9358H46.8073C45.7526 46.9358 44.8705 47.7989 44.8897 48.8538V62.0689C44.8897 63.1239 45.7526 64.0061 46.8073 64.0061C47.862 64.0061 48.7441 63.143 48.7441 62.0689V53.3995L51.9849 57.9836C52.656 58.9234 54.0559 58.9234 54.7462 57.9836L57.987 53.3995V62.0689C57.987 63.1239 58.8499 64.0061 59.9237 64.0061C60.9976 64.0061 61.8605 63.143 61.8413 62.0689V48.8538C61.8413 47.7989 60.9784 46.9166 59.9237 46.9358H58.7348C58.2746 46.9358 57.8335 47.1468 57.5843 47.5304L53.3847 53.8599L49.166 47.5304C48.8975 47.166 48.4565 46.9358 47.9962 46.9358ZM70.4706 0.232178C81.4968 0.232178 90.452 9.17012 90.452 20.2179V70.1438C90.452 81.1724 81.516 90.1295 70.4706 90.1295H20.5361C9.5099 90.1295 0.554688 81.1916 0.554688 70.1438V20.2179C0.554688 9.1893 9.49073 0.232178 20.5361 0.232178H70.4706Z" fill="#FB7701"/>
</svg>
