<svg width="110" height="110" viewBox="0 0 110 110" fill="none" xmlns="http://www.w3.org/2000/svg">
<circle cx="55" cy="55" r="48.125" fill="black"/>
<path d="M13.75 41.25H15.934L24.4518 71.3281H22.2678L13.75 41.25Z" fill="#FFFDFE"/>
<path d="M19.6469 41.25H21.8309L30.3487 71.3281H28.1647L19.6469 41.25Z" fill="#FFFDFE"/>
<path d="M32.0951 41.25H25.543L34.0608 71.3281H40.6129L46.4334 51.7773L52.6252 71.3281H58.8497L67.0399 41.25H60.597L55.5015 60.4785L49.5675 41.25H43.343L37.446 60.1452L32.0951 41.25Z" fill="#FEDB32"/>
<path d="M67.0399 55.2148L70.7528 41.25H73.5921V60.3711C73.5921 63.2188 75.9389 65.5273 78.8338 65.5273H81.0178C83.9128 65.5273 86.2596 63.2188 86.2596 60.3711V41.25H92.8117V60.3711C92.8117 66.8971 87.4336 72.1875 80.7994 72.1875H79.0522C72.418 72.1875 67.0399 66.8971 67.0399 60.3711V55.2148Z" fill="#FEDB32"/>
</svg>
