<svg width="22" height="22" viewBox="0 0 22 22" fill="none" xmlns="http://www.w3.org/2000/svg">
<path d="M17.3737 6.26098C17.7568 6.42373 18.1618 6.56599 18.5045 6.75634C18.8284 6.93628 19.0967 7.1592 19.238 7.48303C19.2812 7.5822 19.3227 7.6823 19.3625 7.7833C19.7594 8.79206 18.6385 9.97434 18.6385 11.0584C18.6385 12.1424 19.7594 13.3247 19.3625 14.3334C19.3229 14.4342 19.2814 14.534 19.2383 14.6329C18.805 15.6263 17.177 15.6702 16.4107 16.4365C15.6444 17.2028 15.6005 18.8308 14.6072 19.2642C14.5082 19.3074 14.4083 19.3488 14.3075 19.3885C13.2987 19.7854 12.1164 18.6645 11.0324 18.6645C9.94835 18.6645 8.76606 19.7854 7.75731 19.3885C7.65647 19.3488 7.55653 19.3074 7.45752 19.2642C6.93779 19.0374 6.67798 18.4837 6.4386 17.8974M15.5259 3.98058C15.3106 3.48727 15.0557 3.04822 14.6073 2.85259C14.5082 2.8094 14.4083 2.76794 14.3074 2.72826C13.2987 2.33134 12.1164 3.45222 11.0324 3.45222C9.94832 3.45222 8.76604 2.33134 7.75728 2.72826C7.65645 2.76794 7.55651 2.80939 7.4575 2.85259C6.46426 3.2859 6.42026 4.91356 5.65401 5.67981C4.88774 6.44608 3.26003 6.49003 2.82668 7.48328C2.78345 7.58236 2.74196 7.68238 2.70226 7.78329C2.30534 8.79205 3.42622 9.97433 3.42622 11.0584C3.42622 12.1424 2.30534 13.3247 2.70226 14.3335C2.74193 14.4343 2.78338 14.5342 2.82657 14.6332C3.06972 15.1906 3.689 15.449 4.32112 15.7039" stroke="black" stroke-width="1.34226" stroke-linecap="round"/>
<circle cx="9.0625" cy="9.08836" r="0.708301" transform="rotate(45 9.0625 9.08836)" fill="black"/>
<circle cx="12.9961" cy="13.0282" r="0.708301" transform="rotate(45 12.9961 13.0282)" fill="black"/>
<path d="M9.0284 13.0614L13.0352 9.05469" stroke="black" stroke-width="1.34226" stroke-linecap="round" stroke-linejoin="round"/>
</svg>
