<svg width="68" height="68" viewBox="0 0 68 68" fill="none" xmlns="http://www.w3.org/2000/svg">
<path d="M0 33.9466C0 52.6954 15.1989 67.8942 33.9476 67.8942C52.6963 67.8942 67.8952 52.6954 67.8952 33.9466C67.8952 15.1979 52.6963 -0.000976562 33.9476 -0.000976562C15.1989 -0.000976562 0 15.1979 0 33.9466Z" fill="black"/>
<path d="M37.1722 31.3496L49.8099 16.9751H46.8152L35.8418 29.4563L27.0774 16.9751H16.9688L30.2222 35.8488L16.9688 50.9227H19.9637L31.5518 37.7422L40.8077 50.9227H50.9163L37.1714 31.3496H37.1722ZM33.0702 36.0151L31.7274 34.1357L21.0428 19.1811H25.6428L34.2654 31.25L35.6082 33.1294L46.8166 48.817H42.2166L33.0702 36.0158V36.0151Z" fill="white"/>
</svg>
