<svg width="69" height="69" viewBox="0 0 69 69" fill="none" xmlns="http://www.w3.org/2000/svg">
<path d="M0 34.295C0 53.235 15.3539 68.589 34.294 68.589C53.2341 68.589 68.588 53.235 68.588 34.295C68.588 15.3549 53.2341 0.000976562 34.294 0.000976562C15.3539 0.000976562 0 15.3549 0 34.295Z" fill="#25D366"/>
<path fill-rule="evenodd" clip-rule="evenodd" d="M46.2905 22.0806C43.0755 18.8656 38.7887 17.1509 34.2876 17.1509C24.8568 17.1509 17.1406 24.867 17.1406 34.2979C17.1406 37.2986 17.998 40.2993 19.4984 42.8714L17.1406 51.4449L26.1428 49.0872C28.7149 50.3732 31.5012 51.2305 34.2876 51.2305C43.7185 51.2305 51.4346 43.5144 51.4346 34.0835C51.4346 29.5825 49.5056 25.2957 46.2905 22.0806ZM34.2876 48.4442C31.7156 48.4442 29.1435 47.8011 27.0002 46.5151L26.5715 46.3008L21.213 47.8011L22.7134 42.657L22.2847 42.014C20.7843 39.6563 20.1413 37.0843 20.1413 34.5122C20.1413 26.7961 26.5715 20.3659 34.2876 20.3659C38.1457 20.3659 41.5751 21.8663 44.3615 24.4384C47.1479 27.2247 48.4339 30.6541 48.4339 34.5122C48.4339 42.014 42.2181 48.4442 34.2876 48.4442ZM42.0038 37.7273C41.5751 37.5129 39.4318 36.4413 39.0031 36.4413C38.5744 36.2269 38.36 36.2269 38.1457 36.6556C37.9313 37.0843 37.074 37.9416 36.8597 38.3703C36.6454 38.5846 36.431 38.5846 36.0023 38.5846C35.5736 38.3703 34.2877 37.9416 32.573 36.4413C31.2869 35.3696 30.4296 33.8692 30.2152 33.4405C30.0009 33.0119 30.2152 32.7975 30.4296 32.5832C30.6439 32.3688 30.8582 32.1545 31.0726 31.9402C31.2869 31.7258 31.2869 31.5115 31.5013 31.2972C31.7156 31.0828 31.5013 30.8685 31.5013 30.6541C31.5013 30.4398 30.6439 28.2964 30.2152 27.4391C30.0009 26.7961 29.5722 26.7961 29.3579 26.7961C29.1436 26.7961 28.9292 26.7961 28.5005 26.7961C28.2861 26.7961 27.8575 26.7961 27.4288 27.2247C27.0001 27.6534 25.9285 28.7251 25.9285 30.8685C25.9285 33.0119 27.4288 34.9409 27.6431 35.3696C27.8575 35.5839 30.6439 40.085 34.9306 41.7997C38.5743 43.3001 39.2174 42.8714 40.0748 42.8714C40.9321 42.8714 42.6468 41.7997 42.8611 40.9423C43.2898 39.8707 43.2898 39.0133 43.0755 39.0133C42.8611 37.9416 42.4325 37.9416 42.0038 37.7273Z" fill="white"/>
</svg>
