<svg width="21" height="20" viewBox="0 0 21 20" fill="none" xmlns="http://www.w3.org/2000/svg">
<path d="M6.66952 3.55872H5.44928C3.65216 3.55872 2.19531 5.01557 2.19531 6.81268V7.80762C2.19531 7.96238 2.30546 8.09307 2.45177 8.14351C3.24934 8.4185 3.8223 9.17567 3.8223 10.0667C3.8223 10.9576 3.24934 11.7148 2.45177 11.9898C2.30546 12.0402 2.19531 12.1709 2.19531 12.3257V13.3206C2.19531 15.1177 3.65216 16.5746 5.44928 16.5746H15.2112C17.0083 16.5746 18.4652 15.1177 18.4652 13.3206V12.3257C18.4652 12.1709 18.355 12.0402 18.2087 11.9898C17.4111 11.7148 16.8382 10.9576 16.8382 10.0667C16.8382 9.17567 17.4111 8.4185 18.2087 8.14351C18.355 8.09307 18.4652 7.96238 18.4652 7.80762V6.81268C18.4652 5.01557 17.0083 3.55872 15.2112 3.55872H9.51674" stroke="black" stroke-width="1.22024" stroke-linecap="round"/>
<path d="M10.0065 7.2424C10.1692 7.02691 10.4929 7.02691 10.6556 7.2424L11.4613 8.30925C11.51 8.37369 11.5768 8.42219 11.6531 8.44856L12.9167 8.88517C13.1719 8.97336 13.272 9.2812 13.1173 9.50256L12.3516 10.5985C12.3054 10.6647 12.2799 10.7432 12.2784 10.8239L12.2529 12.1993C12.2483 12.4499 12.0053 12.6265 11.7655 12.5535V12.5535L11.2874 12.4078L10.4495 12.1527C10.3723 12.1292 10.2898 12.1292 10.2125 12.1527L8.93361 12.5422C8.67529 12.6209 8.41343 12.4306 8.40843 12.1606L8.38366 10.8239C8.38217 10.7432 8.35667 10.6647 8.31042 10.5985L7.54477 9.50256C7.39012 9.2812 7.49014 8.97336 7.74537 8.88517L9.00899 8.44856C9.08532 8.42219 9.15207 8.37369 9.20073 8.30925L10.0065 7.2424Z" stroke="black" stroke-width="1.22024"/>
</svg>
