<svg width="86" height="86" viewBox="0 0 86 86" fill="none" xmlns="http://www.w3.org/2000/svg">
<circle cx="42.9984" cy="43.0023" r="41.9984" fill="#F6F6F6" stroke="black" stroke-width="0.308811"/>
<rect x="23.1133" y="25.8572" width="40" height="34.2857" fill="white"/>
<path d="M56.116 35.5291V35.6008C56.116 36.205 56.6177 36.7068 57.2218 36.7068C57.8259 36.7068 58.3276 36.205 58.3276 35.6008V35.5291C58.3276 35.2526 59.3106 35.2526 59.3106 35.5291V35.6008C59.3106 36.7581 58.3686 37.69 57.2116 37.69C56.0546 37.69 55.1229 36.7478 55.1229 35.6008V35.5291C55.1331 35.2629 56.116 35.2629 56.116 35.5291ZM37.7065 39.2466C38.4437 39.2466 39.0068 39.6051 39.2116 40.281C38.7099 40.4141 38.2082 40.4756 37.6962 40.4756C36.9283 40.4756 36.6519 40.4039 36.1604 40.2707C36.3549 39.6768 37.0102 39.2466 37.7065 39.2466ZM58.4505 33.4399H56.0034C54.4266 33.4399 53.116 34.6586 53.0034 36.2358L52.8294 38.7653C52.7474 39.9635 53.6997 40.9774 54.8976 40.9876H59.5563C60.7645 40.9876 61.7065 39.9738 61.6246 38.7653L61.4505 36.2358C61.3379 34.6586 60.0273 33.4399 58.4505 33.4399ZM49.901 33.317C48.4061 34.7406 49.8396 37.8436 47.116 39.1545C46.8191 39.2978 46.5631 38.8268 46.1638 38.8268C45.0273 38.837 42.8464 39.8406 42.7645 40.3424C42.6928 40.7623 43.6246 41.09 46.3584 41.1003C48.744 41.1003 49.5119 37.4749 50.3413 37.4749C51.1707 37.4749 50.7816 40.7623 50.6997 41.1003H51.57C51.4983 40.7623 51.4369 39.728 51.4471 38.2737C51.4471 36.8195 51.7133 36.4918 51.9181 35.396C52.0922 34.4333 50.6792 33.6038 49.901 33.317ZM36.9079 34.7508C36.2014 33.3478 35.2799 33.102 34.8191 33.4707C34.471 33.7472 33.6519 34.8635 33.6007 34.9351C32.7099 36.205 32.7611 36.5123 33.9079 37.2394C34.5529 37.649 35.0751 37.1267 35.3003 36.9629C35.1877 37.6285 34.8601 38.6834 34.3686 39.431C34.1024 39.2262 33.9078 39.0725 33.785 38.9599C33.6314 38.8165 33.3959 38.8268 33.2423 38.9701C33.1706 39.0418 33.1297 39.134 33.1399 39.2364C33.1399 39.3388 33.1911 39.431 33.2526 39.4924C34.4505 40.5882 36.0171 41.2027 37.686 41.2129C39.3652 41.2129 40.942 40.5985 42.1399 39.4924C42.2935 39.3491 42.3038 39.1135 42.1604 38.9701C42.0068 38.8165 41.7713 38.8165 41.6177 38.9599C41.5256 39.0418 41.4334 39.1237 41.3311 39.2057L40.8089 38.0382C40.727 37.8334 40.6348 37.5876 40.5324 37.2803C40.5836 37.1575 40.6962 37.0346 40.8498 36.8707C40.9625 36.7581 41.0546 36.6454 41.1263 36.543C41.4744 35.99 41.2799 35.6725 41.1672 35.4574C40.9215 34.9556 40.5324 35.1195 40.2457 35.4165C39.8976 35.7852 39.5597 35.9388 39.0171 36.0617C38.5666 36.1641 38.2082 36.1129 37.9215 35.9285C37.5222 35.6725 36.9079 34.7508 36.9079 34.7508ZM30.2116 33.1839H30.0171C29.2184 33.2351 28.6655 33.5833 28.3584 34.0544C28 33.5116 27.3242 33.1327 26.3106 33.1942L26.2901 33.2249C26.1775 33.4092 25.7372 34.249 26.4437 35.1604C26.587 35.3141 26.9454 35.7544 26.802 36.3074L24.7338 39.646C24.57 39.9226 24.6416 40.2707 24.8976 40.4551C25.43 40.834 26.5051 41.3461 28.3686 41.3461C30.2321 41.3461 31.2969 40.834 31.8294 40.4551L31.901 40.3936C32.1058 40.1991 32.1468 39.8918 31.9932 39.646L29.9352 36.3074L29.9454 36.3689L29.9249 36.2767C29.8123 35.7749 30.0887 35.3755 30.2526 35.2014L30.2935 35.1604C31.0102 34.249 30.57 33.4092 30.4471 33.2249L30.4266 33.1942L30.2116 33.1839ZM40.2662 43.9371H34.6962C34.1331 43.9371 33.6621 44.3979 33.6621 44.9612V52.007C33.6621 52.5703 34.1229 53.0414 34.6962 53.0414H40.2662C40.8294 53.0414 41.3003 52.5805 41.2901 52.007C41.2901 51.4438 40.8294 50.9727 40.2662 50.9727H35.7201V49.5082H39.6724C40.2355 49.5082 40.7065 49.0474 40.7065 48.4841C40.7065 47.9208 40.2457 47.4498 39.6724 47.4498H35.7201V45.9853H40.2662C40.8294 45.9853 41.3003 45.5244 41.2901 44.9509C41.2901 44.3979 40.8294 43.9371 40.2662 43.9371ZM31.3584 43.9371H25.3481C24.785 43.9371 24.314 44.3979 24.314 44.9612C24.314 45.5244 24.7747 45.9955 25.3481 45.9955H27.3242V52.007C27.3242 52.5703 27.785 53.0414 28.3481 53.0414C28.9113 53.0414 29.3823 52.5805 29.3823 52.007V45.9955H31.3584C31.9215 45.9955 32.3925 45.5347 32.3925 44.9612C32.3925 44.3877 31.9317 43.9371 31.3584 43.9371ZM60.273 43.9371C59.7099 43.9371 59.2389 44.3979 59.2389 44.9612V49.2727C59.2389 50.6245 58.471 51.3209 57.2218 51.3209C55.9727 51.3209 55.2048 50.604 55.2048 49.2112V44.9612C55.2048 44.3979 54.744 43.9268 54.1707 43.9371C53.6075 43.9371 53.1365 44.3979 53.1468 44.9612V49.2522C53.1468 51.7613 54.6826 53.0414 57.1911 53.0414C59.6997 53.0414 61.2969 51.7715 61.2969 49.1907V44.9612C61.2969 44.3979 60.8464 43.9371 60.273 43.9371ZM44.3311 43.9371H43.6962C43.1331 43.9371 42.6621 44.3979 42.6724 44.9612V52.0173C42.6724 52.5805 43.1331 53.0516 43.6962 53.0516C44.2594 53.0516 44.7304 52.5908 44.7304 52.0173V47.3883L46.4608 49.8359C46.8191 50.3377 47.5666 50.3377 47.9352 49.8359L49.6655 47.3883V52.0173C49.6655 52.5805 50.1263 53.0516 50.6997 53.0516C51.273 53.0516 51.7338 52.5908 51.7236 52.0173V44.9612C51.7236 44.3979 51.2628 43.9268 50.6997 43.9371H50.0648C49.8191 43.9371 49.5836 44.0497 49.4505 44.2545L47.2082 47.6341L44.9556 44.2545C44.8123 44.06 44.5768 43.9371 44.3311 43.9371ZM56.3311 19C62.2184 19 67 23.7723 67 29.6712V56.3288C67 62.2174 62.2287 67 56.3311 67H29.6689C23.7816 67 19 62.2276 19 56.3288V29.6712C19 23.7826 23.7713 19 29.6689 19H56.3311Z" fill="#FB7701"/>
</svg>
