<svg width="92" height="92" viewBox="0 0 92 92" fill="none" xmlns="http://www.w3.org/2000/svg">
<path d="M45.9997 0C20.5953 0 0 20.5953 0 46.0003C0 71.4064 20.5953 92 45.9997 92C71.4069 92 92 71.4064 92 46.0003C92 20.5969 71.4069 0.00219723 45.9992 0.00219723L45.9997 0ZM67.0949 66.3456C66.271 67.6969 64.5022 68.1254 63.151 67.2959C52.3507 60.6987 38.7545 59.2046 22.7425 62.863C21.1995 63.2145 19.6615 62.2477 19.31 60.7042C18.9568 59.1606 19.9197 57.6226 21.4665 57.271C38.9891 53.2676 54.0195 54.9914 66.1446 62.4016C67.4959 63.231 67.9243 64.9943 67.0949 66.3456ZM72.7252 53.8202C71.687 55.5077 69.4788 56.0405 67.7925 55.0024C55.4278 47.4021 36.5798 45.201 21.9548 49.6406C20.0581 50.2135 18.0548 49.1445 17.4792 47.2511C16.9079 45.3543 17.9774 43.3548 19.8708 42.778C36.5765 37.709 57.3449 40.1644 71.5442 48.8902C73.2305 49.9284 73.7634 52.1361 72.7252 53.8202ZM73.2086 40.7774C58.3831 31.9715 33.9229 31.1618 19.7681 35.4579C17.4951 36.1473 15.0914 34.8641 14.4026 32.5911C13.7137 30.3169 14.9958 27.9148 17.2704 27.2238C33.5192 22.291 60.5308 23.244 77.5996 33.3771C79.6485 34.5906 80.3187 37.2311 79.1047 39.2729C77.8963 41.3174 75.2487 41.9914 73.2108 40.7774H73.2086Z" fill="#1DB954"/>
<path d="M73.2086 40.7774C58.3831 31.9715 33.9229 31.1618 19.7681 35.4579C17.4951 36.1473 15.0914 34.8641 14.4026 32.5911C13.7137 30.3169 14.9958 27.9148 17.2704 27.2238C33.5192 22.291 60.5308 23.244 77.5996 33.3771C79.6485 34.5906 80.3187 37.2311 79.1047 39.2729C77.8963 41.3174 75.2487 41.9914 73.2108 40.7774H73.2086Z" fill="#191414"/>
<path d="M72.7252 53.8202C71.687 55.5077 69.4788 56.0405 67.7925 55.0024C55.4278 47.4021 36.5798 45.201 21.9548 49.6406C20.0581 50.2135 18.0548 49.1445 17.4792 47.2511C16.9079 45.3543 17.9774 43.3548 19.8708 42.778C36.5765 37.709 57.3449 40.1644 71.5442 48.8902C73.2305 49.9284 73.7634 52.1361 72.7252 53.8202Z" fill="#191414"/>
<path d="M67.0949 66.3456C66.271 67.6969 64.5022 68.1254 63.151 67.2959C52.3507 60.6987 38.7545 59.2046 22.7425 62.863C21.1995 63.2145 19.6615 62.2477 19.31 60.7042C18.9568 59.1606 19.9197 57.6226 21.4665 57.271C38.9891 53.2676 54.0195 54.9914 66.1446 62.4016C67.4959 63.231 67.9243 64.9943 67.0949 66.3456Z" fill="#191414"/>
</svg>
