<svg width="69" height="69" viewBox="0 0 69 69" fill="none" xmlns="http://www.w3.org/2000/svg">
<path d="M0 34.295C0 53.235 15.3539 68.589 34.294 68.589C53.2341 68.589 68.588 53.235 68.588 34.295C68.588 15.3549 53.2341 0.000976562 34.294 0.000976562C15.3539 0.000976562 0 15.3549 0 34.295Z" fill="#0088CC"/>
<path d="M17.3575 33.6711C26.5632 29.6603 32.7018 27.0161 35.7733 25.7386C44.5429 22.091 46.3651 21.4574 47.5529 21.4362C47.8141 21.4319 48.3982 21.4966 48.7765 21.8036C49.096 22.0628 49.1839 22.413 49.226 22.6588C49.268 22.9046 49.3204 23.4644 49.2788 23.9019C48.8035 28.8952 46.7472 41.0125 45.7011 46.6051C45.2584 48.9715 44.3868 49.7649 43.543 49.8426C41.7092 50.0113 40.3167 48.6307 38.5405 47.4664C35.7612 45.6445 34.1911 44.5104 31.4933 42.7326C28.3756 40.6781 30.3967 39.5488 32.1735 37.7034C32.6385 37.2204 40.7183 29.8712 40.8747 29.2045C40.8942 29.1211 40.9124 28.8103 40.7277 28.6462C40.5431 28.4821 40.2706 28.5382 40.0739 28.5829C39.7952 28.6461 35.3552 31.5808 26.754 37.3868C25.4938 38.2522 24.3523 38.6739 23.3295 38.6518C22.202 38.6274 20.0331 38.0143 18.4208 37.4901C16.4432 36.8473 14.8714 36.5074 15.0083 35.4157C15.0796 34.8471 15.8627 34.2655 17.3575 33.6711Z" fill="white"/>
</svg>
