<svg width="95" height="95" viewBox="0 0 95 95" fill="none" xmlns="http://www.w3.org/2000/svg">
<path d="M55.0979 6.18292L55.0599 24.472L55.022 42.7611L53.2762 38.5154V38.5045L51.0117 79.2196C53.2382 84.6192 54.4274 87.5041 54.4401 87.515C54.4527 87.5259 55.7178 87.5912 57.2485 87.6565C61.8787 87.8524 67.6221 88.277 71.9866 88.7451C72.9986 88.854 73.8589 88.9084 73.9221 88.8649C73.9854 88.8213 73.998 70.2056 73.9854 47.4858L73.9474 6.18292H55.0979V6.18292Z" fill="url(#paint0_linear_127_811)"/>
<path d="M21 6.12814V47.4746C21 70.2163 21.0253 88.8429 21.0633 88.8756C21.1012 88.9082 22.7331 88.7667 24.7067 88.5817C26.6802 88.3966 29.4001 88.1571 30.7537 88.0591C32.8284 87.9067 39.0526 87.5692 39.761 87.5583C39.9761 87.5583 39.9887 86.633 40.014 70.0421L40.052 52.5259L41.5574 56.1838C41.7851 56.7498 41.861 56.924 42.0887 57.4792L44.3532 16.775C43.8725 15.6102 44.1255 16.2198 43.5815 14.8917C41.7345 10.3956 40.1658 6.59625 40.1026 6.42207L39.9761 6.11725H21V6.12814Z" fill="url(#paint1_linear_127_811)"/>
<path d="M21 6.12814L40.0394 52.5583V52.5365L41.5449 56.1944C49.907 76.5627 54.3981 87.4925 54.4234 87.5143C54.436 87.5252 55.7011 87.5905 57.2318 87.6558C61.862 87.8518 67.6055 88.2764 71.97 88.7445C72.9694 88.8533 73.8423 88.9078 73.8929 88.8642L55.018 42.7497V42.7606L53.2722 38.515C51.5643 34.3673 50.4257 31.5913 43.5563 14.8916C41.7093 10.3956 40.1406 6.59625 40.0774 6.42206L39.9509 6.11725H30.4754L21 6.12814Z" fill="#E30A17"/>
<defs>
<linearGradient id="paint0_linear_127_811" x1="82.4871" y1="68.0154" x2="52.3177" y2="81.2646" gradientUnits="userSpaceOnUse">
<stop stop-color="#B20610"/>
<stop offset="0.255959" stop-color="#B20610"/>
<stop offset="1" stop-color="#590004"/>
</linearGradient>
<linearGradient id="paint1_linear_127_811" x1="11.8513" y1="24.2581" x2="44.4785" y2="10.0949" gradientUnits="userSpaceOnUse">
<stop stop-color="#B20610"/>
<stop offset="0.255959" stop-color="#B20610"/>
<stop offset="1" stop-color="#590004"/>
</linearGradient>
</defs>
</svg>
