<svg width="98" height="98" viewBox="0 0 98 98" fill="none" xmlns="http://www.w3.org/2000/svg">
<circle opacity="0.852" cx="49" cy="49" r="48.125" fill="url(#paint0_radial_4002_736)"/>
<path d="M17.2073 85.2083C17.1416 85.1603 17.0744 85.0994 17.007 85.0254C15.7613 83.8922 13.7322 82.1046 11.6119 79.4028C9.78068 75.4307 10.8187 68.7587 15.3252 59.3384C21.6836 46.047 31.8571 32.5519 36.0282 27.7649C34.8413 26.4409 31.1653 22.815 25.9565 18.904C20.7477 14.993 16.9529 14.5923 15.6304 14.83C16.8512 13.5059 19.6998 11.0106 22.0906 9.3301C29.4968 5.6635 43.1835 11.8594 49.0502 15.3902V39.6814C34.0952 51.1904 20.2593 68.9632 17.4616 75.889C15.3263 81.175 16.1704 84.1067 17.007 85.0254C17.0762 85.0884 17.143 85.1493 17.2073 85.2083Z" fill="url(#paint1_linear_4002_736)"/>
<path d="M17.2073 85.2073C17.1416 85.1593 17.0744 85.0984 17.007 85.0244C15.7613 83.8911 13.7322 82.1036 11.6119 79.4019C9.78067 75.4297 10.8187 68.7577 15.3252 59.3374C22.7071 43.9064 36.0282 27.7639 36.0282 27.7639C36.0282 27.7639 38.4067 33.6703 43.8048 43.9064C29.9021 56.2304 20.2593 68.9622 17.4616 75.888C15.3263 81.174 16.1704 84.1057 17.007 85.0244C17.0762 85.0874 17.143 85.1483 17.2073 85.2073Z" fill="url(#paint2_linear_4002_736)"/>
<path d="M80.8943 85.2083C80.9599 85.1603 81.0272 85.0994 81.0945 85.0254C82.3403 83.8922 84.3693 82.1046 86.4897 79.4028C88.3209 75.4307 87.2829 68.7587 82.7764 59.3384C76.418 46.047 66.2445 32.5519 62.0734 27.7649C63.2603 26.4409 66.9363 22.815 72.1451 18.904C77.3539 14.993 81.1486 14.5923 82.4712 14.83C81.2504 13.5059 78.4018 11.0106 76.011 9.3301C68.6047 5.6635 54.9181 11.8594 49.0514 15.3902V39.6814C64.0064 51.1904 77.8422 68.9632 80.6399 75.889C82.7752 81.175 81.9311 84.1067 81.0945 85.0254C81.0253 85.0884 80.9585 85.1493 80.8943 85.2083Z" fill="url(#paint3_linear_4002_736)"/>
<path d="M80.8943 85.2073C80.9599 85.1593 81.0272 85.0984 81.0945 85.0244C82.3403 83.8911 84.3693 82.1036 86.4897 79.4019C88.3209 75.4297 87.2829 68.7577 82.7764 59.3374C75.3944 43.9064 62.0734 27.7639 62.0734 27.7639C62.0734 27.7639 59.6949 33.6703 54.2967 43.9064C68.1995 56.2304 77.8422 68.9622 80.6399 75.888C82.7752 81.174 81.9311 84.1057 81.0945 85.0244C81.0253 85.0874 80.9585 85.1483 80.8943 85.2073Z" fill="url(#paint4_linear_4002_736)"/>
<defs>
<radialGradient id="paint0_radial_4002_736" cx="0" cy="0" r="1" gradientUnits="userSpaceOnUse" gradientTransform="translate(49 43.8438) rotate(90.0548) scale(53.2813)">
<stop stop-color="#FAFAFA"/>
<stop offset="0.499976" stop-color="#EFEFEF"/>
<stop offset="0.828794" stop-color="#C0BEC0"/>
<stop offset="1" stop-color="#879288"/>
</radialGradient>
<linearGradient id="paint1_linear_4002_736" x1="38.6613" y1="10.2453" x2="39.4761" y2="37.949" gradientUnits="userSpaceOnUse">
<stop stop-color="#008B00"/>
<stop offset="1" stop-color="#6CC329"/>
</linearGradient>
<linearGradient id="paint2_linear_4002_736" x1="28.8835" y1="37.5417" x2="38.2539" y2="50.375" gradientUnits="userSpaceOnUse">
<stop stop-color="#008C00"/>
<stop offset="1" stop-color="#48BF21"/>
</linearGradient>
<linearGradient id="paint3_linear_4002_736" x1="59.4402" y1="10.2453" x2="58.6254" y2="37.949" gradientUnits="userSpaceOnUse">
<stop stop-color="#008B00"/>
<stop offset="1" stop-color="#6CC329"/>
</linearGradient>
<linearGradient id="paint4_linear_4002_736" x1="69.218" y1="37.5417" x2="59.8477" y2="50.375" gradientUnits="userSpaceOnUse">
<stop stop-color="#008C00"/>
<stop offset="1" stop-color="#48BF21"/>
</linearGradient>
</defs>
</svg>
