<svg width="95" height="95" viewBox="0 0 95 95" fill="none" xmlns="http://www.w3.org/2000/svg">
<circle cx="47.0168" cy="47.5534" r="45.7646" transform="rotate(-180 47.0168 47.5534)" stroke="black" stroke-width="2.50765"/>
<path d="M40.8048 28.6814C40.8048 28.6814 42.2994 28.1358 46.7831 28.1358C51.2668 28.1358 53.6955 29.6304 55.7505 31.125L61.7288 31.125C63.3143 31.125 64.8349 31.7548 65.956 32.876C67.0772 33.9971 67.707 35.5177 67.707 37.1033L67.707 41.587C67.707 43.1725 67.0772 44.6931 65.956 45.8142C64.8349 46.9354 63.3143 47.5652 61.7288 47.5652L58.9264 47.5652C58.4132 47.5681 57.9091 47.7016 57.4618 47.9533C57.0145 48.205 56.6386 48.5665 56.3698 49.0038C56.3698 49.0038 55.5637 50.7589 53.135 54.9652C50.7063 59.1715 46.0358 65.5001 45.2885 66.9946C42.5796 66.9946 41.2718 64.9396 42.1125 62.538C43.0728 59.7927 44.3273 57.4583 44.6776 54.4029C44.728 53.9564 44.3843 53.282 43.935 53.282L31.8374 52.3292" stroke="black" stroke-width="2.98914" stroke-linecap="round" stroke-linejoin="round"/>
<path d="M31.8427 46.1652L39.3156 46.352C41.1838 46.5239 42.3047 47.5103 42.3047 49.1544C42.3047 50.7984 40.9969 51.8483 39.3155 51.9567L31.8427 52.3303C30.1987 52.3303 28.8536 50.7984 28.8536 49.1544L28.8536 49.1385C28.8578 48.3485 29.1745 47.5922 29.7347 47.0351C30.2948 46.478 31.0527 46.1652 31.8427 46.1652Z" stroke="black" stroke-width="2.98914" stroke-miterlimit="10"/>
<path d="M28.8536 40.0928L39.3156 40.2796C40.9969 40.3581 42.3047 41.4388 42.3047 43.0819C42.3047 44.7269 40.9969 45.7777 39.3156 45.8842L28.8536 46.071C28.0616 46.0686 27.3027 45.7529 26.7426 45.1928C26.1826 44.6328 25.8669 43.8739 25.8644 43.0819V43.0819C25.8669 42.2899 26.1826 41.531 26.7427 40.971C27.3027 40.4109 28.0616 40.0952 28.8536 40.0928V40.0928Z" stroke="black" stroke-width="2.98914" stroke-miterlimit="10"/>
<path d="M33.3373 28.1262L39.3156 28.4064C41.2772 28.5783 42.3047 29.4713 42.3047 31.1154C42.3047 32.7594 40.9596 33.9177 39.3155 33.9177L33.3373 34.1045C32.5452 34.1023 31.7862 33.7866 31.2261 33.2265C30.666 32.6665 30.3504 31.9074 30.3481 31.1154V31.1154C30.3504 30.3233 30.666 29.5643 31.2261 29.0042C31.7862 28.4441 32.5452 28.1284 33.3373 28.1262V28.1262Z" stroke="black" stroke-width="2.98914" stroke-miterlimit="10"/>
<path d="M30.3481 34.0955L39.3156 34.2823C41.0904 34.3607 42.3047 35.4406 42.3047 37.0846C42.3047 38.7286 41.0904 39.7786 39.3156 39.8869L30.3481 40.0737C29.5561 40.0715 28.797 39.7559 28.2369 39.1958C27.6769 38.6357 27.3612 37.8767 27.359 37.0846V37.0846C27.3612 36.2925 27.6769 35.5335 28.2369 34.9734C28.797 34.4133 29.5561 34.0977 30.3481 34.0955Z" stroke="black" stroke-width="2.98914" stroke-miterlimit="10"/>
</svg>
