<svg width="95" height="95" viewBox="0 0 95 95" fill="none" xmlns="http://www.w3.org/2000/svg">
<circle cx="47.0184" cy="47.5536" r="45.7646" stroke="black" stroke-width="2.50765"/>
<path d="M55.022 41.564H58.7594C59.7506 41.564 60.7012 41.9577 61.4021 42.6586C62.103 43.3595 62.4968 44.3101 62.4968 45.3014V63.2408C62.4968 64.2321 62.103 65.1827 61.4021 65.8836C60.7012 66.5845 59.7506 66.9782 58.7594 66.9782H36.335C35.3438 66.9782 34.3932 66.5845 33.6923 65.8836C32.9914 65.1827 32.5977 64.2321 32.5977 63.2408V45.3014C32.5977 44.3101 32.9914 43.3595 33.6923 42.6586C34.3932 41.9577 35.3438 41.564 36.335 41.564H40.0724" stroke="black" stroke-width="2.98991" stroke-linecap="round" stroke-linejoin="round"/>
<path d="M55.0238 35.5871L47.549 28.1123L40.0742 35.5871" stroke="black" stroke-width="2.98991" stroke-linecap="round" stroke-linejoin="round"/>
<path d="M47.5469 53.62V28.1123" stroke="black" stroke-width="2.98991" stroke-linecap="round" stroke-linejoin="round"/>
</svg>
