<svg width="95" height="95" viewBox="0 0 95 95" fill="none" xmlns="http://www.w3.org/2000/svg">
<circle cx="47.0184" cy="47.5536" r="45.7646" stroke="black" stroke-width="2.50765"/>
<path d="M53.2343 66.4256C53.2343 66.4256 51.7397 66.9711 47.256 66.9711C42.7723 66.9711 40.3436 65.4765 38.2886 63.982H32.3103C30.7248 63.982 29.2042 63.3521 28.083 62.231C26.9619 61.1098 26.332 59.5892 26.332 58.0037V53.52C26.332 51.9344 26.9619 50.4138 28.083 49.2927C29.2042 48.1716 30.7248 47.5417 32.3103 47.5417H35.1126C35.6259 47.5389 36.13 47.4053 36.5773 47.1536C37.0246 46.9019 37.4004 46.5404 37.6693 46.1032C37.6693 46.1032 38.4754 44.348 40.9041 40.1417C43.3328 35.9354 48.0033 29.6069 48.7506 28.1123C51.4595 28.1123 52.7672 30.1673 51.9265 32.5689C50.9663 35.3143 49.7118 37.6486 49.3615 40.704C49.311 41.1506 49.6548 41.825 50.1041 41.825L62.2017 42.7778" stroke="black" stroke-width="2.98914" stroke-linecap="round" stroke-linejoin="round"/>
<path d="M62.1964 48.9417L54.7235 48.7549C52.8553 48.583 51.7344 47.5966 51.7344 45.9526C51.7344 44.3085 53.0421 43.2586 54.7235 43.1503L62.1964 42.7766C63.8404 42.7766 65.1855 44.3085 65.1855 45.9526V45.9684C65.1813 46.7585 64.8645 47.5147 64.3044 48.0718C63.7443 48.629 62.9864 48.9417 62.1964 48.9417Z" stroke="black" stroke-width="2.98914" stroke-miterlimit="10"/>
<path d="M65.1855 55.0142L54.7235 54.8273C53.0421 54.7489 51.7344 53.6681 51.7344 52.025C51.7344 50.3801 53.0421 49.3292 54.7235 49.2227L65.1855 49.0359C65.9775 49.0384 66.7364 49.3541 67.2964 49.9141C67.8565 50.4741 68.1722 51.233 68.1746 52.025V52.025C68.1722 52.817 67.8565 53.5759 67.2964 54.1359C66.7364 54.696 65.9775 55.0117 65.1855 55.0142V55.0142Z" stroke="black" stroke-width="2.98914" stroke-miterlimit="10"/>
<path d="M60.7018 66.9807L54.7235 66.7005C52.7619 66.5286 51.7344 65.6356 51.7344 63.9916C51.7344 62.3476 53.0795 61.1893 54.7235 61.1893L60.7018 61.0024C61.4939 61.0047 62.2529 61.3203 62.813 61.8804C63.3731 62.4405 63.6887 63.1995 63.6909 63.9916V63.9916C63.6887 64.7837 63.3731 65.5427 62.813 66.1028C62.2529 66.6629 61.4939 66.9785 60.7018 66.9807V66.9807Z" stroke="black" stroke-width="2.98914" stroke-miterlimit="10"/>
<path d="M63.6909 61.0115L54.7235 60.8247C52.9487 60.7462 51.7344 59.6664 51.7344 58.0223C51.7344 56.3783 52.9487 55.3284 54.7235 55.22L63.6909 55.0332C64.483 55.0354 65.242 55.3511 65.8021 55.9112C66.3622 56.4712 66.6778 57.2303 66.6801 58.0223V58.0223C66.6778 58.8144 66.3622 59.5734 65.8021 60.1335C65.242 60.6936 64.483 61.0093 63.6909 61.0115Z" stroke="black" stroke-width="2.98914" stroke-miterlimit="10"/>
</svg>
